<?xml version="1.0" encoding="UTF-8"?>
<svg version="1.1" xmlns="http://www.w3.org/2000/svg" width="201" height="159">
<path d="M0 0 C2.97 0 5.94 0 9 0 C9 0.66 9 1.32 9 2 C10.010625 1.938125 11.02125 1.87625 12.0625 1.8125 C20.06710681 2.19367175 27.09560898 6.74034133 33 12 C33.7890625 14.22265625 33.7890625 14.22265625 34 16 C34.66 16 35.32 16 36 16 C37.25390625 17.609375 37.25390625 17.609375 38.5625 19.75 C39.21412109 20.79414062 39.21412109 20.79414062 39.87890625 21.859375 C42.33527812 26.54959028 42.08643901 30.81365965 42 36 C42.66 36 43.32 36 44 36 C44 39.3 44 42.6 44 46 C43.34 46 42.68 46 42 46 C42.02320313 47.12019531 42.04640625 48.24039063 42.0703125 49.39453125 C42.08907237 50.86718084 42.10727234 52.33983763 42.125 53.8125 C42.14175781 54.55048828 42.15851563 55.28847656 42.17578125 56.04882812 C42.21074628 59.91246426 42.19397555 61.70903668 40 65 C38.515 65.495 38.515 65.495 37 66 C37.33 66.99 37.66 67.98 38 69 C39.485 69.495 39.485 69.495 41 70 C41 71.98 41 73.96 41 76 C39.35 76.33 37.7 76.66 36 77 C35.86722656 77.57234375 35.73445313 78.1446875 35.59765625 78.734375 C35.00619683 80.97650875 34.26711146 83.08579619 33.4375 85.25 C33.16808594 85.95640625 32.89867187 86.6628125 32.62109375 87.390625 C32.41613281 87.92171875 32.21117187 88.4528125 32 89 C28.535 89.495 28.535 89.495 25 90 C25 92.31 25 94.62 25 97 C24.0409375 97.4021875 24.0409375 97.4021875 23.0625 97.8125 C20.66868314 98.88667752 20.66868314 98.88667752 20 102 C12.24258683 106.97645373 5.25697482 108.15315458 -4 107 C-7.7065872 105.46932549 -10.96960851 103.64047656 -14 101 C-14 100.34 -14 99.68 -14 99 C-15.32 98.34 -16.64 97.68 -18 97 C-18 95.02 -18 93.04 -18 91 C-19.0725 90.87625 -20.145 90.7525 -21.25 90.625 C-24.08566791 89.85425051 -24.83212502 89.28350068 -26.35546875 86.7109375 C-29 80.08528881 -29 80.08528881 -29 77 C-30.32 76.67 -31.64 76.34 -33 76 C-34.125 71.25 -34.125 71.25 -33 69 C-32.34 69 -31.68 69 -31 69 C-30.67 68.01 -30.34 67.02 -30 66 C-30.99 65.67 -31.98 65.34 -33 65 C-34.88236013 60.08494854 -35.36690118 55.26757996 -35.75390625 50.0390625 C-35.78619224 48.00804547 -35.78619224 48.00804547 -37 47 C-37.0979057 45.50261876 -37.12974864 44.00057108 -37.125 42.5 C-37.12757812 41.6853125 -37.13015625 40.870625 -37.1328125 40.03125 C-37 38 -37 38 -36 37 C-35.62807954 35.21594402 -35.30189705 33.42223085 -35 31.625 C-34.49215931 28.61763093 -33.96596946 25.89790837 -33 23 C-32.34 23 -31.68 23 -31 23 C-30.938125 22.29875 -30.87625 21.5975 -30.8125 20.875 C-28.75338907 13.58891519 -21.59442177 8.42657737 -15.3125 4.75 C-11.36999868 2.66716911 -8.70270886 1.87387378 -4.3125 1.9375 C-3.10013672 1.95103516 -3.10013672 1.95103516 -1.86328125 1.96484375 C-0.94095703 1.98224609 -0.94095703 1.98224609 0 2 C0 1.34 0 0.68 0 0 Z M-18 35 C-18 35.66 -18 36.32 -18 37 C-18.66 37 -19.32 37 -20 37 C-20.66 38.98 -21.32 40.96 -22 43 C-21.01 43 -20.02 43 -19 43 C-19 42.34 -19 41.68 -19 41 C-14.38 41 -9.76 41 -5 41 C-5 41.66 -5 42.32 -5 43 C-2.36 43.66 0.28 44.32 3 45 C3 46.65 3 48.3 3 50 C2.34 50 1.68 50 1 50 C1 50.66 1 51.32 1 52 C-1.31 52 -3.62 52 -6 52 C-6 51.34 -6 50.68 -6 50 C-12.06050614 48.9187609 -12.06050614 48.9187609 -18 50 C-17.67 50.99 -17.34 51.98 -17 53 C-15.68 53 -14.36 53 -13 53 C-13 53.66 -13 54.32 -13 55 C-9.04 55.33 -5.08 55.66 -1 56 C-0.67 57.98 -0.34 59.96 0 62 C-3.1765511 63.05885037 -5.59988011 63.20049266 -8.9375 63.25 C-9.97777344 63.27578125 -11.01804687 63.3015625 -12.08984375 63.328125 C-15.35101401 62.96042258 -16.54784255 62.08460813 -19 60 C-19.66 60 -20.32 60 -21 60 C-20.67 57.36 -20.34 54.72 -20 52 C-20.99 52 -21.98 52 -23 52 C-23 51.34 -23 50.68 -23 50 C-23.66 50 -24.32 50 -25 50 C-25.33 54.62 -25.66 59.24 -26 64 C-24.02 64.66 -22.04 65.32 -20 66 C-20 66.66 -20 67.32 -20 68 C-19.01 68.66 -18.02 69.32 -17 70 C-16.75474853 72.82039195 -16.76070114 75.17762081 -17.5546875 77.90625 C-18.36964551 81.7379824 -17.43171681 85.40290056 -16 89 C-13.78223378 90.30514736 -13.78223378 90.30514736 -11 91 C-9.16306153 92.47449321 -7.45808132 94.04305945 -5.74609375 95.66015625 C-1.95648802 98.568064 2.38473786 98.24290853 7 98 C11.36925083 96.90768729 14.05272287 94.36359433 17.25390625 91.33984375 C19 90 19 90 23 89 C24.485 83.06 24.485 83.06 26 77 C25.01 76.505 25.01 76.505 24 76 C23.625 73.3125 23.625 73.3125 24 70 C26.90527883 67.09472117 29.09507437 65.30164188 33 64 C33.05391993 62.20866022 33.09275571 60.41686101 33.125 58.625 C33.14820313 57.62726563 33.17140625 56.62953125 33.1953125 55.6015625 C33.27216848 52.83737827 33.27216848 52.83737827 31 51 C27.90073181 51.32198966 27.90073181 51.32198966 25 52 C25 51.34 25 50.68 25 50 C23.56359829 49.80426392 22.12580496 49.61872184 20.6875 49.4375 C19.88699219 49.33308594 19.08648437 49.22867188 18.26171875 49.12109375 C15.83182884 48.85244822 15.83182884 48.85244822 13 50 C13 50.66 13 51.32 13 52 C10.69 52 8.38 52 6 52 C6 51.34 6 50.68 6 50 C5.34 50 4.68 50 4 50 C4 48.35 4 46.7 4 45 C6.64 44.34 9.28 43.68 12 43 C12 42.34 12 41.68 12 41 C14.22988284 41.08750555 16.45896005 41.19569061 18.6875 41.3125 C19.92886719 41.37050781 21.17023438 41.42851563 22.44921875 41.48828125 C26.06321199 42.00910976 28.05766393 42.90154617 31 45 C31 44.01 31 43.02 31 42 C30.34 42 29.68 42 29 42 C29 41.29875 29 40.5975 29 39.875 C27.11240711 34.44817043 21.61746224 31.91973343 16.8125 29.1875 C5.33484876 24.34138059 -9.08282362 26.05852614 -18 35 Z " fill="#6B6B6B" transform="translate(100,31)"/>
<path d="M0 0 C0.83265381 0.00523682 1.66530762 0.01047363 2.52319336 0.01586914 C3.42231445 0.0190918 4.32143555 0.02231445 5.24780273 0.02563477 C6.66609375 0.03820312 6.66609375 0.03820312 8.11303711 0.05102539 C9.06243164 0.05553711 10.01182617 0.06004883 10.98999023 0.06469727 C13.34356776 0.07652429 15.69702188 0.09300514 18.05053711 0.11352539 C18.05053711 0.77352539 18.05053711 1.43352539 18.05053711 2.11352539 C18.95545898 2.2044043 18.95545898 2.2044043 19.87866211 2.29711914 C21.07749023 2.42280273 21.07749023 2.42280273 22.30053711 2.55102539 C23.48389648 2.6728418 23.48389648 2.6728418 24.69116211 2.79711914 C26.8741835 3.08987532 28.92785531 3.53416958 31.05053711 4.11352539 C31.05053711 4.77352539 31.05053711 5.43352539 31.05053711 6.11352539 C31.62288086 6.22825195 32.19522461 6.34297852 32.78491211 6.46118164 C35.26525367 7.17534895 37.11422408 8.18660411 39.30053711 9.55102539 C40.00694336 9.98286133 40.71334961 10.41469727 41.44116211 10.85961914 C42.23780273 11.48030273 42.23780273 11.48030273 43.05053711 12.11352539 C43.05053711 12.77352539 43.05053711 13.43352539 43.05053711 14.11352539 C44.37053711 14.77352539 45.69053711 15.43352539 47.05053711 16.11352539 C47.05053711 17.10352539 47.05053711 18.09352539 47.05053711 19.11352539 C48.53553711 19.60852539 48.53553711 19.60852539 50.05053711 20.11352539 C58.82061709 30.39568813 59.63164934 42.85032298 59.47631836 55.68383789 C59.47138477 57.25755396 59.46809221 58.83127594 59.46635437 60.40499878 C59.45876785 63.67782805 59.43835838 66.95021153 59.40722656 70.22290039 C59.36732613 74.42516519 59.34955944 78.62714363 59.33991718 82.82957649 C59.32997925 86.84353581 59.31010046 90.85742504 59.28881836 94.87133789 C59.28372474 96.02160147 59.28372474 96.02160147 59.27852821 97.19510269 C59.26701196 99.34914912 59.24850883 101.50300985 59.22753906 103.65698242 C59.21769485 104.88289093 59.20785065 106.10879944 59.19770813 107.37185669 C59.05053711 110.11352539 59.05053711 110.11352539 58.05053711 111.11352539 C55.61303711 111.30102539 55.61303711 111.30102539 53.05053711 111.11352539 C45.49480803 103.55779631 49.68999653 75.33624122 49.57373047 65.17993164 C49.53398433 61.85553598 49.48252232 58.53148124 49.42944336 55.20727539 C49.42102921 54.19677124 49.41261505 53.18626709 49.40394592 52.1451416 C49.27409446 44.71630231 47.85097625 38.84234554 45.11303711 31.92602539 C44.79463867 31.1074707 44.47624023 30.28891602 44.14819336 29.44555664 C43.02757573 27.06474268 41.62540671 25.20886471 40.05053711 23.11352539 C40.05053711 22.45352539 40.05053711 21.79352539 40.05053711 21.11352539 C39.30803711 20.84540039 38.56553711 20.57727539 37.80053711 20.30102539 C35.17117537 19.16561919 33.30692373 17.8434218 31.05053711 16.11352539 C30.06053711 15.78352539 29.07053711 15.45352539 28.05053711 15.11352539 C28.05053711 14.45352539 28.05053711 13.79352539 28.05053711 13.11352539 C27.34026367 12.98075195 26.62999023 12.84797852 25.89819336 12.71118164 C24.9790918 12.53458008 24.05999023 12.35797852 23.11303711 12.17602539 C22.19651367 12.00200195 21.27999023 11.82797852 20.33569336 11.64868164 C18.05053711 11.11352539 18.05053711 11.11352539 17.05053711 10.11352539 C14.19175802 9.876513 11.35170414 9.69133357 8.48803711 9.55102539 C7.27857422 9.48625 7.27857422 9.48625 6.04467773 9.42016602 C4.04684906 9.31377277 2.04871641 9.21311651 0.05053711 9.11352539 C0.05053711 9.77352539 0.05053711 10.43352539 0.05053711 11.11352539 C-3.57946289 11.77352539 -7.20946289 12.43352539 -10.94946289 13.11352539 C-10.94946289 13.77352539 -10.94946289 14.43352539 -10.94946289 15.11352539 C-11.79508789 15.46415039 -12.64071289 15.81477539 -13.51196289 16.17602539 C-22.26909376 21.11186279 -27.09265034 28.9617668 -30.94946289 38.11352539 C-31.75145239 42.69010374 -32.08014739 47.11006195 -32.10717773 51.75146484 C-32.11743988 53.02580887 -32.12770203 54.30015289 -32.13827515 55.6131134 C-32.14171307 56.28365061 -32.14515099 56.95418781 -32.14869308 57.64504433 C-32.16058232 59.75915665 -32.1800528 61.87307376 -32.20181274 63.98710632 C-32.26314242 69.99247822 -32.31765528 75.99781868 -32.35083008 82.00341797 C-32.37172361 85.68803946 -32.40696174 89.37228495 -32.45158768 93.05669212 C-32.46576726 94.45891097 -32.47447454 95.86119609 -32.47764206 97.26348305 C-32.48252725 99.21658916 -32.5072528 101.16961555 -32.53295898 103.12255859 C-32.54104584 104.23395706 -32.54913269 105.34535553 -32.5574646 106.49043274 C-32.75150375 107.7888636 -32.75150375 107.7888636 -32.94946289 109.11352539 C-36.17160046 111.2616171 -37.2272169 111.40738692 -40.94946289 111.11352539 C-42.75707838 109.3059099 -42.08658699 106.53462677 -42.09472656 104.10009766 C-42.10110641 102.81108047 -42.10748627 101.52206329 -42.11405945 100.19398499 C-42.11558929 98.77263425 -42.11670263 97.35128301 -42.11743164 95.92993164 C-42.120645 94.47558052 -42.12400913 93.02122972 -42.1275177 91.56687927 C-42.13352051 88.50763197 -42.13535676 85.44841294 -42.13476562 82.38916016 C-42.1346647 78.49237099 -42.14823934 74.5957669 -42.16553783 70.69902134 C-42.17673575 67.68846325 -42.17868235 64.67794852 -42.1781559 61.66737175 C-42.17932729 60.23263863 -42.18370125 58.79790407 -42.19148827 57.3631916 C-42.28849228 37.61991469 -42.28849228 37.61991469 -37.44946289 28.73852539 C-37.02665039 27.94704102 -36.60383789 27.15555664 -36.16821289 26.34008789 C-35.76602539 25.60532227 -35.36383789 24.87055664 -34.94946289 24.11352539 C-34.63493164 23.41614258 -34.32040039 22.71875977 -33.99633789 22.00024414 C-32.8149212 19.87104914 -31.61033388 18.79443132 -29.69946289 17.30102539 C-27.05574101 15.15539604 -24.9740921 12.98841076 -22.88696289 10.30102539 C-20.67263746 7.5913118 -20.13568232 7.16525301 -16.57446289 6.17602539 C-15.70821289 6.15540039 -14.84196289 6.13477539 -13.94946289 6.11352539 C-13.94946289 5.45352539 -13.94946289 4.79352539 -13.94946289 4.11352539 C-12.77577148 3.80608398 -12.77577148 3.80608398 -11.57836914 3.49243164 C-10.56645508 3.22301758 -9.55454102 2.95360352 -8.51196289 2.67602539 C-7.50262695 2.40918945 -6.49329102 2.14235352 -5.45336914 1.86743164 C-3.07918138 1.15258259 -2.35634348 0.13721975 0 0 Z " fill="#DCDCDC" transform="translate(94.949462890625,18.886474609375)"/>
<path d="M0 0 C0.495 1.485 0.495 1.485 1 3 C-2.63 3 -6.26 3 -10 3 C-9.34 4.98 -8.68 6.96 -8 9 C-8.99 9.33 -9.98 9.66 -11 10 C-11.309375 9.319375 -11.61875 8.63875 -11.9375 7.9375 C-14.32535013 5.69436806 -14.89229269 5.62028712 -18.0625 5.6875 C-25.62970522 6.93226829 -30.66141247 12.75480299 -34.96484375 18.7265625 C-38.54840588 24.71321924 -39.68212881 29.06502372 -39 36 C-38.2265625 34.7315625 -38.2265625 34.7315625 -37.4375 33.4375 C-33.03052108 26.89661549 -27.5938316 21.5312772 -20 19 C-17.0014095 18.4488572 -14.04419899 18.14093514 -11 18 C-11 17.34 -11 16.68 -11 16 C-10.01 15.67 -9.02 15.34 -8 15 C-8 15.99 -8 16.98 -8 18 C-6.80375 17.855625 -5.6075 17.71125 -4.375 17.5625 C4.351534 17.52094508 13.69593874 23.31869696 20 29 C21.58203125 31.140625 21.58203125 31.140625 22.8125 33.25 C23.23144531 33.95640625 23.65039062 34.6628125 24.08203125 35.390625 C24.53642578 36.18726562 24.53642578 36.18726562 25 37 C25.33 34.69 25.66 32.38 26 30 C27.485 30.495 27.485 30.495 29 31 C29.02911003 34.89581756 29.04683587 38.791607 29.0625 42.6875 C29.07087891 43.79029297 29.07925781 44.89308594 29.08789062 46.02929688 C29.09111328 47.09599609 29.09433594 48.16269531 29.09765625 49.26171875 C29.10289307 50.24100342 29.10812988 51.22028809 29.11352539 52.22924805 C29 55 29 55 28.43139648 57.73364258 C27.7583554 60.02218991 27.7583554 60.02218991 29 62 C27.515 62.495 27.515 62.495 26 63 C26.495 64.485 26.495 64.485 27 66 C28.485 66.495 28.485 66.495 30 67 C30 68.98 30 70.96 30 73 C28.35 73.33 26.7 73.66 25 74 C24.86722656 74.57234375 24.73445313 75.1446875 24.59765625 75.734375 C24.00619683 77.97650875 23.26711146 80.08579619 22.4375 82.25 C22.16808594 82.95640625 21.89867187 83.6628125 21.62109375 84.390625 C21.41613281 84.92171875 21.21117187 85.4528125 21 86 C17.535 86.495 17.535 86.495 14 87 C14 89.31 14 91.62 14 94 C13.0409375 94.4021875 13.0409375 94.4021875 12.0625 94.8125 C9.66868314 95.88667752 9.66868314 95.88667752 9 99 C1.24258683 103.97645373 -5.74302518 105.15315458 -15 104 C-18.7065872 102.46932549 -21.96960851 100.64047656 -25 98 C-25 97.34 -25 96.68 -25 96 C-26.32 95.34 -27.64 94.68 -29 94 C-29.125 91.125 -29.125 91.125 -29 88 C-28.01 87.01 -28.01 87.01 -27 86 C-22.34198737 86 -19.92176967 88.57400419 -16.74609375 91.625 C-12.98227401 94.58890279 -8.62211209 94.24326906 -4 94 C0.405706 92.8985735 3.06147753 90.324024 6.25390625 87.2421875 C8 86 8 86 12 86 C12.165 84.7625 12.33 83.525 12.5 82.25 C12.63921875 81.20585937 12.63921875 81.20585937 12.78125 80.140625 C13.06777357 77.69541605 13.06777357 77.69541605 13 74 C12.67 73.67 12.34 73.34 12 73 C11.5 70.3125 11.5 70.3125 12 67 C14.03743794 64.58020105 16.29151919 62.63552803 19 61 C19.99 61 20.98 61 22 61 C21.85962479 59.18706911 21.71255111 57.3746557 21.5625 55.5625 C21.48128906 54.55316406 21.40007812 53.54382813 21.31640625 52.50390625 C21.26788532 50.06359221 21.26788532 50.06359221 20 49 C18.00041636 48.95919217 15.99954746 48.95745644 14 49 C14 48.34 14 47.68 14 47 C10.04 47 6.08 47 2 47 C2 47.66 2 48.32 2 49 C-0.31 49 -2.62 49 -5 49 C-5 48.34 -5 47.68 -5 47 C-5.66 47 -6.32 47 -7 47 C-7 45.35 -7 43.7 -7 42 C-3.91190305 40.23537317 -2.76687864 40 1 40 C1 39.34 1 38.68 1 38 C3.24940295 37.91880497 5.49964871 37.86072181 7.75 37.8125 C9.00296875 37.77769531 10.2559375 37.74289063 11.546875 37.70703125 C15.14109357 38.01197061 16.44725126 38.54394629 19 41 C19.495 40.01 19.495 40.01 20 39 C19.34 39 18.68 39 18 39 C17.67 37.35 17.34 35.7 17 34 C16.01 33.67 15.02 33.34 14 33 C14 32.34 14 31.68 14 31 C13.29875 30.731875 12.5975 30.46375 11.875 30.1875 C9 29 9 29 6 27.4375 C1.04178118 25.06168682 -3.35322005 24.88235576 -8.8125 24.9375 C-10.55466797 24.95103516 -10.55466797 24.95103516 -12.33203125 24.96484375 C-13.21246094 24.97644531 -14.09289062 24.98804687 -15 25 C-15 24.34 -15 23.68 -15 23 C-23.04951359 24.956479 -28.5836387 28.37837417 -33.5390625 35.08203125 C-37.99989245 42.73848499 -38.32768334 51.35019455 -39 60 C-40.32 60 -41.64 60 -43 60 C-43.97895395 53.36221466 -44.24971292 46.83066057 -44.3125 40.125 C-44.35600586 38.58779297 -44.35600586 38.58779297 -44.40039062 37.01953125 C-44.4940212 25.68302933 -40.70601618 17.24291075 -33 9 C-23.6219638 -0.09987411 -12.50222143 -0.49278829 0 0 Z " fill="#EBEBEB" transform="translate(111,34)"/>
<path d="M0 0 C1.40620605 0.00737183 1.40620605 0.00737183 2.84082031 0.01489258 C17.29011361 0.25956192 27.90853289 4.9204888 38.44921875 14.7890625 C49.34033043 26.41824952 51.27138187 37.92390639 51.10546875 53.28515625 C51.09986349 54.81928591 51.09559779 56.353421 51.09260559 57.88755798 C51.08122989 61.89727988 51.05182683 65.90666831 51.01849365 69.91625977 C50.98763452 74.0189971 50.97406663 78.12178908 50.95898438 82.22460938 C50.92694892 90.25405814 50.87584242 98.28323742 50.8125 106.3125 C49.4925 106.3125 48.1725 106.3125 46.8125 106.3125 C46.80703156 105.1343145 46.80703156 105.1343145 46.80145264 103.93232727 C46.76334694 96.47502248 46.70624295 89.01820491 46.62859726 81.5612154 C46.58934161 77.7288643 46.5570473 73.89673543 46.54150391 70.06420898 C46.5261908 66.35508854 46.49149304 62.64658002 46.44419098 58.9377346 C46.42952621 57.53345289 46.42146771 56.12908374 46.42061615 54.72472572 C46.40548611 42.26669793 44.65979029 31.28481356 37.08203125 21.1171875 C35.8125 19.3125 35.8125 19.3125 34.8125 16.3125 C33.04658113 15.30333967 33.04658113 15.30333967 30.8125 14.3125 C29.94625 13.69375 29.08 13.075 28.1875 12.4375 C16.95053602 5.36237453 4.81685764 4.0313108 -8.1875 5.3125 C-18.54098274 7.78808135 -28.38325857 14.51155592 -34.1640625 23.53125 C-34.50179687 24.1190625 -34.83953125 24.706875 -35.1875 25.3125 C-35.56648438 25.9621875 -35.94546875 26.611875 -36.3359375 27.28125 C-39.78547806 33.64210492 -40.27433019 39.88209257 -40.48461914 47.07397461 C-40.5445681 49.02520485 -40.5445681 49.02520485 -40.60572815 51.01585388 C-40.64478911 52.4155148 -40.68376314 53.81517815 -40.72265625 55.21484375 C-40.76572388 56.66216542 -40.80914058 58.10947674 -40.85289001 59.55677795 C-40.9665008 63.34598362 -41.07540075 67.13531026 -41.18328857 70.92468262 C-41.29445337 74.79948277 -41.41011661 78.67414843 -41.52539062 82.54882812 C-41.75047301 90.13659488 -41.97057413 97.72449521 -42.1875 105.3125 C-43.6725 105.8075 -43.6725 105.8075 -45.1875 106.3125 C-46.92219399 104.57780601 -46.34198511 102.21648089 -46.36450195 99.85327148 C-46.37733719 98.68372421 -46.39017242 97.51417694 -46.40339661 96.30918884 C-46.41078354 95.03024246 -46.41817047 93.75129608 -46.42578125 92.43359375 C-46.433853 91.11899673 -46.44192474 89.80439972 -46.45024109 88.44996643 C-46.46530379 85.65129728 -46.47511738 82.85265373 -46.48266602 80.05395508 C-46.49144268 77.21128342 -46.51210573 74.36911398 -46.54418945 71.52661133 C-47.01154841 29.1950413 -47.01154841 29.1950413 -31.7265625 12.6484375 C-27.02362016 8.20596582 -22.25553749 4.61787645 -16.1875 2.3125 C-15.33027344 1.95671875 -14.47304687 1.6009375 -13.58984375 1.234375 C-9.01782926 -0.00442571 -4.71681675 -0.0288836 0 0 Z " fill="#232323" transform="translate(101.1875,21.6875)"/>
<path d="M0 0 C0.495 1.485 0.495 1.485 1 3 C-2.63 3 -6.26 3 -10 3 C-9.34 4.98 -8.68 6.96 -8 9 C-8.99 9.33 -9.98 9.66 -11 10 C-11.309375 9.319375 -11.61875 8.63875 -11.9375 7.9375 C-14.32535013 5.69436806 -14.89229269 5.62028712 -18.0625 5.6875 C-25.62970522 6.93226829 -30.66141247 12.75480299 -34.96484375 18.7265625 C-38.54840588 24.71321924 -39.68212881 29.06502372 -39 36 C-38.2265625 34.7315625 -38.2265625 34.7315625 -37.4375 33.4375 C-33.03052108 26.89661549 -27.5938316 21.5312772 -20 19 C-17.0014095 18.4488572 -14.04419899 18.14093514 -11 18 C-11 17.34 -11 16.68 -11 16 C-10.01 15.67 -9.02 15.34 -8 15 C-8 15.99 -8 16.98 -8 18 C-6.80375 17.855625 -5.6075 17.71125 -4.375 17.5625 C4.351534 17.52094508 13.69593874 23.31869696 20 29 C21.58203125 31.140625 21.58203125 31.140625 22.8125 33.25 C23.23144531 33.95640625 23.65039062 34.6628125 24.08203125 35.390625 C24.53642578 36.18726562 24.53642578 36.18726562 25 37 C25.33 34.69 25.66 32.38 26 30 C27.485 30.495 27.485 30.495 29 31 C29.02911003 34.89581756 29.04683587 38.791607 29.0625 42.6875 C29.07087891 43.79029297 29.07925781 44.89308594 29.08789062 46.02929688 C29.09111328 47.09599609 29.09433594 48.16269531 29.09765625 49.26171875 C29.10289307 50.24100342 29.10812988 51.22028809 29.11352539 52.22924805 C29.00308543 54.92469572 28.60534166 57.37545639 28 60 C26.68 60 25.36 60 24 60 C23.88785156 58.11667969 23.88785156 58.11667969 23.7734375 56.1953125 C22.95185256 44.9557612 21.72356742 36.12072029 13.125 28.0625 C6.48591126 23.68070143 0.42785531 22.43709911 -7.375 22.5 C-8.21063477 22.50644531 -9.04626953 22.51289062 -9.90722656 22.51953125 C-18.88118098 22.78521903 -24.74578053 25.313054 -30.9375 31.875 C-36.07316455 37.90656672 -37.47288138 44.28649142 -38.1875 51.9375 C-38.26935547 52.71673828 -38.35121094 53.49597656 -38.43554688 54.29882812 C-38.63364171 56.19820797 -38.81823841 58.09898762 -39 60 C-40.32 60 -41.64 60 -43 60 C-43.97895395 53.36221466 -44.24971292 46.83066057 -44.3125 40.125 C-44.35600586 38.58779297 -44.35600586 38.58779297 -44.40039062 37.01953125 C-44.4940212 25.68302933 -40.70601618 17.24291075 -33 9 C-23.6219638 -0.09987411 -12.50222143 -0.49278829 0 0 Z " fill="#232323" transform="translate(111,34)"/>
<path d="M0 0 C19.68945182 -0.64516408 19.68945182 -0.64516408 28.1875 6.125 C36.13484113 13.71322749 37.65329485 20.81776638 38.19287109 31.52441406 C38.2439502 32.32975586 38.2950293 33.13509766 38.34765625 33.96484375 C38.37867432 34.6930835 38.40969238 35.42132324 38.44165039 36.17163086 C38.8449765 38.2150185 38.8449765 38.2150185 41.04077148 39.25219727 C41.68731689 39.49897217 42.3338623 39.74574707 43 40 C41.02 40.66 39.04 41.32 37 42 C37.825 42.5775 38.65 43.155 39.5 43.75 C40.325 44.4925 41.15 45.235 42 46 C42 47.32 42 48.64 42 50 C39.03 49.505 39.03 49.505 36 49 C36.0825 50.010625 36.165 51.02125 36.25 52.0625 C35.94268231 56.90275368 34.6163705 58.99368267 32 63 C30.68 63 29.36 63 28 63 C28.63156995 57.94744036 30.13459373 53.70406799 32 49 C30.02 49 28.04 49 26 49 C26.15123577 46.35337395 26.50001243 44.55721506 28.296875 42.5546875 C32.4 39 32.4 39 36 39 C35.85962479 37.18706911 35.71255111 35.3746557 35.5625 33.5625 C35.48128906 32.55316406 35.40007812 31.54382813 35.31640625 30.50390625 C35.26788532 28.06359221 35.26788532 28.06359221 34 27 C32.00041636 26.95919217 29.99954746 26.95745644 28 27 C28 26.34 28 25.68 28 25 C24.04 25 20.08 25 16 25 C16 25.66 16 26.32 16 27 C13.69 27 11.38 27 9 27 C9 26.34 9 25.68 9 25 C8.34 25 7.68 25 7 25 C7 23.35 7 21.7 7 20 C10.08809695 18.23537317 11.23312136 18 15 18 C15 17.34 15 16.68 15 16 C17.24940295 15.91880497 19.49964871 15.86072181 21.75 15.8125 C23.62945312 15.76029297 23.62945312 15.76029297 25.546875 15.70703125 C29.14109357 16.01197061 30.44725126 16.54394629 33 19 C33.33 18.34 33.66 17.68 34 17 C33.34 17 32.68 17 32 17 C31.505 14.525 31.505 14.525 31 12 C30.01 11.67 29.02 11.34 28 11 C28 10.34 28 9.68 28 9 C27.29875 8.731875 26.5975 8.46375 25.875 8.1875 C23 7 23 7 20 5.4375 C15.04178118 3.06168682 10.64677995 2.88235576 5.1875 2.9375 C4.02605469 2.94652344 2.86460938 2.95554688 1.66796875 2.96484375 C0.78753906 2.97644531 -0.09289062 2.98804688 -1 3 C-0.67 2.01 -0.34 1.02 0 0 Z " fill="#F3F3F3" transform="translate(97,56)"/>
<path d="M0 0 C0.83265381 0.00523682 1.66530762 0.01047363 2.52319336 0.01586914 C3.42231445 0.0190918 4.32143555 0.02231445 5.24780273 0.02563477 C6.66609375 0.03820312 6.66609375 0.03820312 8.11303711 0.05102539 C9.06243164 0.05553711 10.01182617 0.06004883 10.98999023 0.06469727 C13.34356776 0.07652429 15.69702188 0.09300514 18.05053711 0.11352539 C18.05053711 0.77352539 18.05053711 1.43352539 18.05053711 2.11352539 C18.95545898 2.2044043 18.95545898 2.2044043 19.87866211 2.29711914 C21.07749023 2.42280273 21.07749023 2.42280273 22.30053711 2.55102539 C23.48389648 2.6728418 23.48389648 2.6728418 24.69116211 2.79711914 C26.8741835 3.08987532 28.92785531 3.53416958 31.05053711 4.11352539 C31.05053711 4.77352539 31.05053711 5.43352539 31.05053711 6.11352539 C31.62288086 6.22825195 32.19522461 6.34297852 32.78491211 6.46118164 C35.26525367 7.17534895 37.11422408 8.18660411 39.30053711 9.55102539 C40.00694336 9.98286133 40.71334961 10.41469727 41.44116211 10.85961914 C42.23780273 11.48030273 42.23780273 11.48030273 43.05053711 12.11352539 C43.05053711 12.77352539 43.05053711 13.43352539 43.05053711 14.11352539 C44.37053711 14.77352539 45.69053711 15.43352539 47.05053711 16.11352539 C47.05053711 17.10352539 47.05053711 18.09352539 47.05053711 19.11352539 C48.53553711 19.60852539 48.53553711 19.60852539 50.05053711 20.11352539 C50.05053711 21.76352539 50.05053711 23.41352539 50.05053711 25.11352539 C49.48592773 24.38133789 48.92131836 23.64915039 48.33959961 22.89477539 C39.9095903 12.65217022 30.13898137 6.2490696 17.05053711 4.11352539 C2.74851873 2.75389042 -8.92214694 3.86264295 -20.82446289 12.42602539 C-31.37661533 21.22266603 -37.3168784 33.61577957 -38.94946289 47.11352539 C-39.53567436 56.89133284 -39.3500409 66.69974308 -39.22412109 76.48944092 C-39.18263315 80.06325736 -39.16481383 83.63719198 -39.14477539 87.21118164 C-39.10233478 94.17891327 -39.03439288 101.1461851 -38.94946289 108.11352539 C-37.95946289 108.11352539 -36.96946289 108.11352539 -35.94946289 108.11352539 C-35.94946289 96.23352539 -35.94946289 84.35352539 -35.94946289 72.11352539 C-35.61946289 72.11352539 -35.28946289 72.11352539 -34.94946289 72.11352539 C-34.61946289 84.65352539 -34.28946289 97.19352539 -33.94946289 110.11352539 C-37.41446289 110.60852539 -37.41446289 110.60852539 -40.94946289 111.11352539 C-42.75707838 109.3059099 -42.08658699 106.53462677 -42.09472656 104.10009766 C-42.10110641 102.81108047 -42.10748627 101.52206329 -42.11405945 100.19398499 C-42.11558929 98.77263425 -42.11670263 97.35128301 -42.11743164 95.92993164 C-42.120645 94.47558052 -42.12400913 93.02122972 -42.1275177 91.56687927 C-42.13352051 88.50763197 -42.13535676 85.44841294 -42.13476562 82.38916016 C-42.1346647 78.49237099 -42.14823934 74.5957669 -42.16553783 70.69902134 C-42.17673575 67.68846325 -42.17868235 64.67794852 -42.1781559 61.66737175 C-42.17932729 60.23263863 -42.18370125 58.79790407 -42.19148827 57.3631916 C-42.28849228 37.61991469 -42.28849228 37.61991469 -37.44946289 28.73852539 C-37.02665039 27.94704102 -36.60383789 27.15555664 -36.16821289 26.34008789 C-35.76602539 25.60532227 -35.36383789 24.87055664 -34.94946289 24.11352539 C-34.63493164 23.41614258 -34.32040039 22.71875977 -33.99633789 22.00024414 C-32.8149212 19.87104914 -31.61033388 18.79443132 -29.69946289 17.30102539 C-27.05574101 15.15539604 -24.9740921 12.98841076 -22.88696289 10.30102539 C-20.67263746 7.5913118 -20.13568232 7.16525301 -16.57446289 6.17602539 C-15.70821289 6.15540039 -14.84196289 6.13477539 -13.94946289 6.11352539 C-13.94946289 5.45352539 -13.94946289 4.79352539 -13.94946289 4.11352539 C-12.77577148 3.80608398 -12.77577148 3.80608398 -11.57836914 3.49243164 C-10.56645508 3.22301758 -9.55454102 2.95360352 -8.51196289 2.67602539 C-7.50262695 2.40918945 -6.49329102 2.14235352 -5.45336914 1.86743164 C-3.07918138 1.15258259 -2.35634348 0.13721975 0 0 Z " fill="#EFEFEF" transform="translate(94.949462890625,18.886474609375)"/>
<path d="M0 0 C4.62 0 9.24 0 14 0 C14 0.66 14 1.32 14 2 C14.94875 2.144375 15.8975 2.28875 16.875 2.4375 C20 3 20 3 22 4 C22 5.65 22 7.3 22 9 C21.34 9 20.68 9 20 9 C20 9.66 20 10.32 20 11 C17.69 11 15.38 11 13 11 C13 10.34 13 9.68 13 9 C9.04 9 5.08 9 1 9 C1.33 9.66 1.66 10.32 2 11 C4.02463255 11.65213292 4.02463255 11.65213292 6 12 C6 12.66 6 13.32 6 14 C6.85464844 13.98839844 7.70929688 13.97679688 8.58984375 13.96484375 C9.69457031 13.95582031 10.79929687 13.94679688 11.9375 13.9375 C13.03964844 13.92589844 14.14179687 13.91429688 15.27734375 13.90234375 C18 14 18 14 19 15 C19.25 17.9375 19.25 17.9375 19 21 C14.32121414 24.11919057 9.47703509 23.58527684 4 23 C1.16911578 22.01926296 0.18757202 21.18757202 -2 19 C-2.9375 16.375 -2.9375 16.375 -3 14 C-2.67 13.34 -2.34 12.68 -2 12 C-2.66 11.67 -3.32 11.34 -4 11 C-4.20140476 7.37471432 -3.85776765 5.13498292 -2 2 C-1.34 2 -0.68 2 0 2 C0 1.34 0 0.68 0 0 Z " fill="#F2F2F2" transform="translate(81,72)"/>
<path d="M0 0 C2.98637535 2.67202005 3.91994386 4.18342736 4.3125 8.1875 C4 11 4 11 3 13 C0.77734375 13.67578125 0.77734375 13.67578125 -2.0625 14.3125 C-13.33026998 17.2569884 -19.23702627 23.88115554 -26 33 C-26.92606041 24.13382904 -25.17393314 18.24569874 -20 11 C-14.8267627 4.79006236 -8.73761559 -1.51958532 0 0 Z " fill="#EFEFEF" transform="translate(97,39)"/>
<path d="M0 0 C5.0919863 4.18270304 7.73371895 10.62517094 9 17 C9.09282817 19.31714599 9.12791785 21.63680636 9.12939453 23.95581055 C9.13114685 24.64729187 9.13289917 25.33877319 9.13470459 26.0512085 C9.13909515 28.32973766 9.13619594 30.60818884 9.1328125 32.88671875 C9.13348611 34.47044388 9.13445662 36.0541689 9.13571167 37.63789368 C9.13718466 40.9523721 9.13504603 44.26682354 9.13037109 47.58129883 C9.12466005 51.83867623 9.127964 56.09599078 9.13394356 60.3533659 C9.13754803 63.62090025 9.13641136 66.88841957 9.13381577 70.15595436 C9.1331469 71.72650981 9.13397351 73.2970666 9.13629532 74.86762047 C9.13882149 77.05590846 9.13498245 79.24409282 9.12939453 81.43237305 C9.12859894 82.67939499 9.12780334 83.92641693 9.12698364 85.21122742 C9 88 9 88 8 89 C5.5625 89.1875 5.5625 89.1875 3 89 C-2.41332047 83.58667953 -0.0829741 67.58926507 -0.09765625 60.25390625 C-0.09513269 56.02338507 -0.07947189 51.79298401 -0.0625 47.5625 C-0.05747269 45.36653748 -0.05291197 43.17057385 -0.04882812 40.97460938 C-0.03792534 35.64971472 -0.02128574 30.32486276 0 25 C2.51687529 27.51687529 2.2935843 28.44970078 2.4140625 31.94140625 C2.45281494 32.98514404 2.49156738 34.02888184 2.53149414 35.10424805 C2.56235107 36.24547119 2.59320801 37.38669434 2.625 38.5625 C2.66294678 39.73659424 2.70089355 40.91068848 2.73999023 42.12036133 C3.16975541 57.07638421 3.09128173 72.03962638 3 87 C4.32 87 5.64 87 7 87 C6.98503935 78.22771934 6.9430659 69.4560823 6.86790943 60.68410969 C6.83382046 56.60956476 6.80855797 52.53538755 6.80444336 48.46069336 C6.80012107 44.51808768 6.77133907 40.57630896 6.72656822 36.63396263 C6.71371725 35.14036082 6.70924082 33.64665941 6.71384621 32.15300941 C6.73473187 23.31100166 5.80770733 15.92666595 2.16654968 7.75675964 C1.06274931 5.14828753 0.44668722 2.7876919 0 0 Z " fill="#F7F7F7" transform="translate(145,41)"/>
<path d="M0 0 C6.20192763 4.13461842 9.71496464 9.57323904 12.3125 16.5 C13.09448787 20.48102918 13.14202 23.95242989 13 28 C10.83606556 25.95936666 9.55223509 24.28086242 7.9375 21.6875 C4.63177286 16.96360593 0.03402167 14.60407725 -5 12 C-5.63421875 11.66871094 -6.2684375 11.33742188 -6.921875 10.99609375 C-11.24779237 8.94227518 -15.29074774 8.4130923 -20 8 C-20 6.68 -20 5.36 -20 4 C-19.33613281 3.87882812 -18.67226562 3.75765625 -17.98828125 3.6328125 C-12.48955189 2.60670102 -12.48955189 2.60670102 -7.1875 0.875 C-4.46229041 -0.21508383 -2.91177038 -0.49713153 0 0 Z " fill="#E6E6E6" transform="translate(124,44)"/>
<path d="M0 0 C1.32 0.66 2.64 1.32 4 2 C4 2.66 4 3.32 4 4 C5.32 4.66 6.64 5.32 8 6 C8.12613166 11.54979285 8.12613166 11.54979285 7.46484375 13.91015625 C6.92052871 16.3572869 7.14027407 18.21438425 7.5 20.6875 C7.70629588 22.11984983 7.88297041 23.55761028 8 25 C7 26 7 26 4.0625 26.125 C1 26 1 26 -1 25 C-2.0703125 22.78515625 -2.0703125 22.78515625 -3.125 20.0625 C-3.47820312 19.16660156 -3.83140625 18.27070312 -4.1953125 17.34765625 C-5 15 -5 15 -5 13 C-6.32 12.67 -7.64 12.34 -9 12 C-10.125 7.25 -10.125 7.25 -9 5 C-8.34 5 -7.68 5 -7 5 C-6.67 4.01 -6.34 3.02 -6 2 C-4.02 2 -2.04 2 0 2 C0 1.34 0 0.68 0 0 Z " fill="#EDEDED" transform="translate(76,95)"/>
<path d="M0 0 C1.0828125 0.3403125 1.0828125 0.3403125 2.1875 0.6875 C2.95284775 3.4427519 3.37772104 5.13268864 2.4375 7.875 C0.72753881 10.35444373 -1.12143991 11.49005426 -4 12.3125 C-8.80049276 12.9525657 -14.23449905 13.51870038 -18.8125 11.6875 C-19.1425 11.0275 -19.4725 10.3675 -19.8125 9.6875 C-21.82919827 8.55399466 -21.82919827 8.55399466 -23.8125 7.6875 C-23.4825 5.3775 -23.1525 3.0675 -22.8125 0.6875 C-20.8325 0.6875 -18.8525 0.6875 -16.8125 0.6875 C-16.8125 1.3475 -16.8125 2.0075 -16.8125 2.6875 C-10.58542827 3.05379834 -5.2964546 -0.58849496 0 0 Z " fill="#F0F0F0" transform="translate(113.8125,112.3125)"/>
<path d="M0 0 C0.83265381 0.00523682 1.66530762 0.01047363 2.52319336 0.01586914 C3.42231445 0.0190918 4.32143555 0.02231445 5.24780273 0.02563477 C6.66609375 0.03820312 6.66609375 0.03820312 8.11303711 0.05102539 C9.06243164 0.05553711 10.01182617 0.06004883 10.98999023 0.06469727 C13.34356776 0.07652429 15.69702188 0.09300514 18.05053711 0.11352539 C18.05053711 0.77352539 18.05053711 1.43352539 18.05053711 2.11352539 C18.95545898 2.2044043 18.95545898 2.2044043 19.87866211 2.29711914 C21.07749023 2.42280273 21.07749023 2.42280273 22.30053711 2.55102539 C23.48389648 2.6728418 23.48389648 2.6728418 24.69116211 2.79711914 C26.8741835 3.08987532 28.92785531 3.53416958 31.05053711 4.11352539 C31.05053711 4.77352539 31.05053711 5.43352539 31.05053711 6.11352539 C31.62288086 6.22825195 32.19522461 6.34297852 32.78491211 6.46118164 C35.26525367 7.17534895 37.11422408 8.18660411 39.30053711 9.55102539 C40.00694336 9.98286133 40.71334961 10.41469727 41.44116211 10.85961914 C42.23780273 11.48030273 42.23780273 11.48030273 43.05053711 12.11352539 C43.05053711 12.77352539 43.05053711 13.43352539 43.05053711 14.11352539 C44.37053711 14.77352539 45.69053711 15.43352539 47.05053711 16.11352539 C47.05053711 17.10352539 47.05053711 18.09352539 47.05053711 19.11352539 C48.53553711 19.60852539 48.53553711 19.60852539 50.05053711 20.11352539 C50.05053711 21.76352539 50.05053711 23.41352539 50.05053711 25.11352539 C49.48592773 24.38133789 48.92131836 23.64915039 48.33959961 22.89477539 C39.9095903 12.65217022 30.13898137 6.2490696 17.05053711 4.11352539 C1.54034261 2.63903401 -10.80631721 4.24314571 -23.11743164 14.40258789 C-25.31457813 16.45450722 -27.08302447 18.76319553 -28.94946289 21.11352539 C-31.19946289 21.92602539 -31.19946289 21.92602539 -32.94946289 22.11352539 C-32.94946289 21.45352539 -32.94946289 20.79352539 -32.94946289 20.11352539 C-31.62915039 18.85180664 -31.62915039 18.85180664 -29.82446289 17.42602539 C-27.14361296 15.23603531 -25.0070163 13.03403854 -22.88696289 10.30102539 C-20.67263746 7.5913118 -20.13568232 7.16525301 -16.57446289 6.17602539 C-15.70821289 6.15540039 -14.84196289 6.13477539 -13.94946289 6.11352539 C-13.94946289 5.45352539 -13.94946289 4.79352539 -13.94946289 4.11352539 C-12.77577148 3.80608398 -12.77577148 3.80608398 -11.57836914 3.49243164 C-10.56645508 3.22301758 -9.55454102 2.95360352 -8.51196289 2.67602539 C-7.50262695 2.40918945 -6.49329102 2.14235352 -5.45336914 1.86743164 C-3.07918138 1.15258259 -2.35634348 0.13721975 0 0 Z " fill="#E5E5E5" transform="translate(94.949462890625,18.886474609375)"/>
<path d="M0 0 C5.06281464 0.44671894 7.32766175 2.73569934 11 6 C15.16120385 8.08060192 20.45689571 7.33300241 25 7 C28.62850754 5.70410445 30.46237072 4.5534419 33.125 1.8125 C35 0 35 0 39 0 C38.73339601 3.19924794 38.28552552 4.69605348 36.0625 7.0625 C29.38290387 11.28836694 22.0222155 14.64378146 14 13 C10.75648385 11.65694012 7.90498138 9.9610029 5 8 C3.989375 7.319375 2.97875 6.63875 1.9375 5.9375 C1.298125 5.298125 0.65875 4.65875 0 4 C0 2.68 0 1.36 0 0 Z " fill="#252525" transform="translate(84,123)"/>
<path d="M0 0 C0 2.31 0 4.62 0 7 C-6.06492482 11.41085441 -11.58676421 11.93207351 -19 11 C-19.99 10.34 -20.98 9.68 -22 9 C-22.1875 5.875 -22.1875 5.875 -22 3 C-14.52678392 0.84278299 -7.78961124 -0.46530864 0 0 Z " fill="#E9E9E9" transform="translate(129,84)"/>
<path d="M0 0 C8.34520441 -0.25826551 13.26166471 1.89584602 19.8828125 6.89453125 C22.02432029 9.02418567 22.66855727 10.05015971 23 13 C23.66 13 24.32 13 25 13 C26.25390625 14.609375 26.25390625 14.609375 27.5625 16.75 C27.99691406 17.44609375 28.43132812 18.1421875 28.87890625 18.859375 C31.33527812 23.54959028 31.08643901 27.81365965 31 33 C31.66 33 32.32 33 33 33 C33 36.3 33 39.6 33 43 C32.34 43 31.68 43 31 43 C31.01160156 44.13179687 31.02320313 45.26359375 31.03515625 46.4296875 C31.04453454 47.91145669 31.0536347 49.39322765 31.0625 50.875 C31.07087891 51.62136719 31.07925781 52.36773437 31.08789062 53.13671875 C31.11328125 58.7734375 31.11328125 58.7734375 30 61 C28.35 61 26.7 61 25 61 C26.485 60.505 26.485 60.505 28 60 C28.07468636 55.44681299 28.12885256 50.89399002 28.16479492 46.34033203 C28.1797933 44.79437032 28.20019887 43.24845052 28.22631836 41.70263672 C28.44126044 28.64595908 27.16862629 19.97088109 18 10 C12.87742703 5.14833233 6.61521119 3.14127089 0 1 C0 0.67 0 0.34 0 0 Z " fill="#D4D4D4" transform="translate(111,34)"/>
<path d="M0 0 C9.48903772 -0.82513371 17.26430583 3.5771532 24.7421875 9.0859375 C32.88142108 15.98597981 36.97354157 25.70023195 39 36 C39.15291727 38.59005674 39.21623575 41.18676742 39.1953125 43.78125 C39.1924826 44.48020386 39.18965271 45.17915771 39.18673706 45.89929199 C39.1756727 48.09971316 39.15059606 50.29970493 39.125 52.5 C39.11495235 54.00520239 39.10582965 55.51041126 39.09765625 57.015625 C39.07577893 60.67721938 39.04134696 64.33856768 39 68 C38.67 68 38.34 68 38 68 C37.970271 66.81241089 37.970271 66.81241089 37.93994141 65.60083008 C37.8445284 62.0043924 37.73491409 58.40852249 37.625 54.8125 C37.5940625 53.56662109 37.563125 52.32074219 37.53125 51.03710938 C37.47324219 49.2340332 37.47324219 49.2340332 37.4140625 47.39453125 C37.3826416 46.28956299 37.3512207 45.18459473 37.31884766 44.04614258 C36.99858793 40.98650963 36.24868043 38.79101115 35 36 C34.566875 34.4221875 34.566875 34.4221875 34.125 32.8125 C32.20247853 26.29728834 30.0903564 20.4421551 26 15 C26 14.34 26 13.68 26 13 C25.2575 12.731875 24.515 12.46375 23.75 12.1875 C21.12063827 11.0520938 19.25638662 9.72989641 17 8 C16.01 7.67 15.02 7.34 14 7 C14 6.34 14 5.68 14 5 C13.32453125 4.89042969 12.6490625 4.78085937 11.953125 4.66796875 C11.06109375 4.50941406 10.1690625 4.35085937 9.25 4.1875 C8.36828125 4.03667969 7.4865625 3.88585937 6.578125 3.73046875 C3.8089089 2.94585752 2.1740599 1.85404641 0 0 Z " fill="#E5E5E5" transform="translate(109,27)"/>
<path d="M0 0 C1.1653125 -0.00257812 2.330625 -0.00515625 3.53125 -0.0078125 C6.5 0.125 6.5 0.125 8.5 1.125 C8.8125 3.9375 8.8125 3.9375 8.5 7.125 C5.69152574 9.67815842 3.76857562 10.09622404 0 10.5 C-3.76857562 10.09622404 -5.69152574 9.67815842 -8.5 7.125 C-8.8125 3.9375 -8.8125 3.9375 -8.5 1.125 C-5.64804778 -0.30097611 -3.17538825 -0.0070252 0 0 Z " fill="#F7F7F7" transform="translate(103.5,98.875)"/>
<path d="M0 0 C3.81595186 0 5.56784695 1.41052335 8.1875 3.9375 C12.28811505 7.72058955 16.58601725 8.36818712 22 9 C22 9.33 22 9.66 22 10 C17.19351014 10.98266015 14.09477293 11.56766004 9.625 9.25 C7 7 7 7 5.375 5.3125 C3.67845363 3.69306938 2.28050956 3.3931913 0 3 C0 4.32 0 5.64 0 7 C0.515625 7.226875 1.03125 7.45375 1.5625 7.6875 C4.34954731 9.18821778 6.78833948 10.98144856 9.31640625 12.87890625 C14.01536331 16.00791014 20.0184557 15.56580461 25.3671875 14.55078125 C27.25610776 14.07687065 29.13005546 13.54398387 31 13 C30.25 14.9375 30.25 14.9375 29 17 C22.79220485 19.20276602 14.96385434 19.2239551 8.92578125 16.73046875 C6.45025031 15.27905189 4.16401188 13.88557243 2 12 C2 11.34 2 10.68 2 10 C0.68 9.34 -0.64 8.68 -2 8 C-2.125 5.125 -2.125 5.125 -2 2 C-1.34 1.34 -0.68 0.68 0 0 Z " fill="#E5E5E5" transform="translate(84,120)"/>
<path d="M0 0 C3.60296594 -0.41176754 4.78402067 -0.1535853 7.8125 2 C8.534375 2.66 9.25625 3.32 10 4 C9.67 5.32 9.34 6.64 9 8 C8.34 8 7.68 8 7 8 C7.2165625 8.68707031 7.433125 9.37414062 7.65625 10.08203125 C7.9346875 10.98308594 8.213125 11.88414063 8.5 12.8125 C8.7784375 13.70582031 9.056875 14.59914063 9.34375 15.51953125 C10 18 10 18 10 21 C7.6875 20.875 7.6875 20.875 5 20 C2.22879696 15.84319544 1.49221099 11.92210994 1 7 C-0.32 7.33 -1.64 7.66 -3 8 C-2.67 6.02 -2.34 4.04 -2 2 C-1.34 2 -0.68 2 0 2 C0 1.34 0 0.68 0 0 Z " fill="#252525" transform="translate(72,98)"/>
<path d="M0 0 C0 3 0 3 -0.48716736 6.27064514 C-0.97002771 9.78203941 -1.15623968 13.12871962 -1.20532227 16.66967773 C-1.22526749 17.95047714 -1.24521271 19.23127655 -1.26576233 20.55088806 C-1.28274013 21.92845544 -1.29961917 23.30602404 -1.31640625 24.68359375 C-1.33700688 26.1084906 -1.3580041 27.53338177 -1.37937927 28.95826721 C-1.43427921 32.68833786 -1.48382838 36.41846069 -1.53222656 40.14862061 C-1.58267753 43.96305931 -1.63823978 47.77742328 -1.69335938 51.59179688 C-1.80054789 59.06113443 -1.90207822 66.5305346 -2 74 C-2.66 73.67 -3.32 73.34 -4 73 C-4.06967257 64.6459797 -4.12289843 56.29208188 -4.15543652 47.93784237 C-4.17105735 44.05814754 -4.19222949 40.17865227 -4.22631836 36.29907227 C-4.25904056 32.55135208 -4.27687994 28.80382322 -4.28463173 25.05597115 C-4.29015227 23.62989861 -4.30093244 22.20383593 -4.31719017 20.77784538 C-4.46892723 6.91061324 -4.46892723 6.91061324 -1 1 C-0.67 0.67 -0.34 0.34 0 0 Z " fill="#F4F4F4" transform="translate(64,54)"/>
<path d="M0 0 C2.72092771 0.9523247 4.45825975 1.83325975 6.5 3.875 C6.5 5.195 6.5 6.515 6.5 7.875 C3.53 7.38 3.53 7.38 0.5 6.875 C0.62375 8.3909375 0.62375 8.3909375 0.75 9.9375 C0.44268231 14.77775368 -0.8836295 16.86868267 -3.5 20.875 C-4.82 20.875 -6.14 20.875 -7.5 20.875 C-6.86843005 15.82244036 -5.36540627 11.57906799 -3.5 6.875 C-4.82 6.875 -6.14 6.875 -7.5 6.875 C-7.13088042 4.19888302 -6.65144437 3.0318531 -4.75 1.0625 C-2.5 -0.125 -2.5 -0.125 0 0 Z " fill="#272727" transform="translate(132.5,98.125)"/>
<path d="M0 0 C-1.32567878 2.65135755 -2.52350268 2.75169392 -5.25 3.8125 C-9.52802989 5.61484963 -11.89517724 7.61292063 -15 11 C-15.66 11 -16.32 11 -17 11 C-17.67801034 13.90073181 -17.67801034 13.90073181 -18 17 C-17.34 17.66 -16.68 18.32 -16 19 C-16.99 19.66 -17.98 20.32 -19 21 C-19.33 21.99 -19.66 22.98 -20 24 C-20.66 24 -21.32 24 -22 24 C-21.98839844 24.84304687 -21.97679688 25.68609375 -21.96484375 26.5546875 C-21.95130859 28.19824219 -21.95130859 28.19824219 -21.9375 29.875 C-21.92589844 30.96554688 -21.91429688 32.05609375 -21.90234375 33.1796875 C-22 36 -22 36 -23 38 C-22.34 38 -21.68 38 -21 38 C-21 38.66 -21 39.32 -21 40 C-23.97 39.67 -26.94 39.34 -30 39 C-30 38.67 -30 38.34 -30 38 C-28.02 38 -26.04 38 -24 38 C-24.05800781 36.81664062 -24.11601563 35.63328125 -24.17578125 34.4140625 C-24.54434645 23.82761535 -24.42272662 15.88897975 -16.91015625 7.73046875 C-6.48375 -2.16125 -6.48375 -2.16125 0 0 Z " fill="#E7E7E7" transform="translate(97,57)"/>
<path d="M0 0 C3.25 1.8125 3.25 1.8125 5 4 C5 4.99 5 5.98 5 7 C4.30390625 6.83757812 3.6078125 6.67515625 2.890625 6.5078125 C-0.21101236 5.96293026 -3.10262435 5.86724784 -6.25 5.875 C-7.30703125 5.87242188 -8.3640625 5.86984375 -9.453125 5.8671875 C-11.93482251 5.71171462 -11.93482251 5.71171462 -13 7 C-14.66617115 7.04063832 -16.33388095 7.042721 -18 7 C-17.8125 5.1875 -17.8125 5.1875 -17 3 C-11.66614142 -0.94533166 -6.39666264 -0.81283558 0 0 Z " fill="#2D2D2D" transform="translate(125,74)"/>
<path d="M0 0 C0.33 0 0.66 0 1 0 C1.33 18.48 1.66 36.96 2 56 C2.99 56 3.98 56 5 56 C5 44.12 5 32.24 5 20 C5.33 20 5.66 20 6 20 C6.33 32.54 6.66 45.08 7 58 C3.535 58.495 3.535 58.495 0 59 C0 39.53 0 20.06 0 0 Z " fill="#BFBFBF" transform="translate(54,71)"/>
<path d="M0 0 C2.36708707 0.75991356 3.91693373 1.61128915 6 3 C6 4.32 6 5.64 6 7 C-0.27 6.34 -6.54 5.68 -13 5 C-13 5.66 -13 6.32 -13 7 C-14.32 7 -15.64 7 -17 7 C-16.64153747 4.40114668 -16.23689953 3.22753374 -14.3203125 1.38671875 C-9.96252411 -1.2176834 -4.91218528 -0.51086727 0 0 Z " fill="#2F2F2F" transform="translate(94,74)"/>
<path d="M0 0 C0.33 0 0.66 0 1 0 C1 1.65 1 3.3 1 5 C2.98 5 4.96 5 7 5 C7 5.33 7 5.66 7 6 C5.35 6 3.7 6 2 6 C2 8.31 2 10.62 2 13 C1.360625 13.268125 0.72125 13.53625 0.0625 13.8125 C-2.33131686 14.88667752 -2.33131686 14.88667752 -3 18 C-5.4375 19.75 -5.4375 19.75 -8 21 C-8.66 20.67 -9.32 20.34 -10 20 C-7.86430161 17.78520167 -5.78656045 15.84116126 -3.3125 14 C-0.92316499 11.9335481 -0.32919764 11.07251127 0 8 C-3.23891184 9.04788324 -5.57636566 10.3579313 -8.125 12.5625 C-11.76716463 15.65042218 -14.07140442 16.12939994 -18.6875 16.0625 C-19.89986328 16.04896484 -19.89986328 16.04896484 -21.13671875 16.03515625 C-21.75160156 16.02355469 -22.36648437 16.01195312 -23 16 C-23 15.67 -23 15.34 -23 15 C-21.948125 14.71125 -20.89625 14.4225 -19.8125 14.125 C-13.79875067 12.35045102 -10.24459082 10.58484749 -5.74609375 6.2421875 C-4 5 -4 5 0 5 C0 3.35 0 1.7 0 0 Z " fill="#EDEDED" transform="translate(123,115)"/>
<path d="M0 0 C0.99 0.33 1.98 0.66 3 1 C7.13742271 2.1773154 10.70580343 2.28627977 15 2 C15.99 1.34 16.98 0.68 18 0 C19.32 0 20.64 0 22 0 C21.875 1.8125 21.875 1.8125 21 4 C16.44158022 7.35883563 12.0326846 7.35266652 6.5859375 7.3984375 C3.53694758 6.92865355 2.13706005 6.21732521 0 4 C0 2.68 0 1.36 0 0 Z " fill="#232323" transform="translate(93,115)"/>
<path d="M0 0 C0 0.33 0 0.66 0 1 C-1.63195312 1.02126953 -1.63195312 1.02126953 -3.296875 1.04296875 C-17.00281331 1.40908628 -27.71397302 4.39385966 -38 14 C-39.33773782 15.66313351 -40.67267046 17.32854798 -42 19 C-44.25 19.8125 -44.25 19.8125 -46 20 C-46 19.34 -46 18.68 -46 18 C-44.6796875 16.73828125 -44.6796875 16.73828125 -42.875 15.3125 C-40.19415007 13.12250992 -38.05755341 10.92051315 -35.9375 8.1875 C-33.72317457 5.47778641 -33.18621943 5.05172762 -29.625 4.0625 C-28.75875 4.041875 -27.8925 4.02125 -27 4 C-27 3.34 -27 2.68 -27 2 C-17.74556563 -1.47041289 -9.61861833 -1.00168798 0 0 Z " fill="#EAEAEA" transform="translate(108,21)"/>
<path d="M0 0 C1.89492187 0.01353516 1.89492187 0.01353516 3.828125 0.02734375 C4.79234375 0.03894531 5.7565625 0.05054688 6.75 0.0625 C7.08 1.0525 7.41 2.0425 7.75 3.0625 C4.12 3.0625 0.49 3.0625 -3.25 3.0625 C-2.59 5.0425 -1.93 7.0225 -1.25 9.0625 C-2.24 9.3925 -3.23 9.7225 -4.25 10.0625 C-4.58 9.423125 -4.91 8.78375 -5.25 8.125 C-8.27329832 5.0072236 -10.98656724 5.34206936 -15.25 5.0625 C-10.47496141 -0.22414986 -6.9803421 -0.0646328 0 0 Z " fill="#1F1F1F" transform="translate(104.25,33.9375)"/>
<path d="M0 0 C-0.125 1.8125 -0.125 1.8125 -1 4 C-5.76902983 7.33832088 -10.37357601 7.58514809 -16 7 C-16.66 6.67 -17.32 6.34 -18 6 C-18 4.68 -18 3.36 -18 2 C-17.06027344 1.90912109 -17.06027344 1.90912109 -16.1015625 1.81640625 C-14.87566406 1.69072266 -14.87566406 1.69072266 -13.625 1.5625 C-12.81289062 1.48128906 -12.00078125 1.40007812 -11.1640625 1.31640625 C-1.91761364 -0.03551136 -1.91761364 -0.03551136 0 0 Z " fill="#292929" transform="translate(127,86)"/>
<path d="M0 0 C1.66611905 -0.042721 3.33382885 -0.04063832 5 0 C5.33 0.33 5.66 0.66 6 1 C8.01594582 1.23427778 10.038474 1.41336124 12.0625 1.5625 C13.16722656 1.64628906 14.27195312 1.73007813 15.41015625 1.81640625 C16.26480469 1.87699219 17.11945313 1.93757813 18 2 C17.125 5.875 17.125 5.875 16 7 C11.89726764 7.54084984 7.74544924 7.91542152 4.00390625 5.953125 C2.375 4.625 2.375 4.625 0 2 C0 1.34 0 0.68 0 0 Z " fill="#2D2D2D" transform="translate(80,86)"/>
<path d="M0 0 C1.89510699 -0.08160748 3.79124504 -0.13946459 5.6875 -0.1875 C6.74324219 -0.22230469 7.79898438 -0.25710937 8.88671875 -0.29296875 C12.35422768 0.03333385 14.18432448 1.00969875 17 3 C13.94888234 5.66884306 11.98512218 6.43139499 7.9375 6.4375 C7.08027344 6.45683594 6.22304687 6.47617187 5.33984375 6.49609375 C3 6 3 6 1.19140625 4.09765625 C0 2 0 2 0 0 Z " fill="#E8E8E8" transform="translate(101,38)"/>
<path d="M0 0 C2.97 0 5.94 0 9 0 C9 0.66 9 1.32 9 2 C10.0725 1.95875 11.145 1.9175 12.25 1.875 C15.77723487 1.9925745 17.061073 2.34847907 20 4 C19.3608667 3.98428955 18.7217334 3.9685791 18.06323242 3.95239258 C15.10474877 3.8891737 12.14640796 3.8507382 9.1875 3.8125 C8.18267578 3.78736328 7.17785156 3.76222656 6.14257812 3.73632812 C-0.22496667 3.67490486 -5.65035796 4.430251 -11.72924805 6.3503418 C-14 7 -14 7 -17 7 C-14.50728597 3.26092896 -13.31906209 3.02086922 -9 2 C-5.99108829 1.84783644 -3.00952786 1.87961889 0 2 C0 1.34 0 0.68 0 0 Z " fill="#F1F1F1" transform="translate(100,31)"/>
<path d="M0 0 C2.4030419 0.94607949 3.72646197 1.52713422 5.0402832 3.79833984 C7.5472219 12.0145048 7.33735921 20.1367483 7.1875 28.625 C7.1724192 30.12108021 7.15873683 31.6171752 7.14648438 33.11328125 C7.11376305 36.74249968 7.06217056 40.37115248 7 44 C6.67 44 6.34 44 6 44 C5.98018066 43.20827393 5.96036133 42.41654785 5.93994141 41.60083008 C5.8445284 38.0043924 5.73491409 34.40852249 5.625 30.8125 C5.5940625 29.56662109 5.563125 28.32074219 5.53125 27.03710938 C5.49257812 25.83505859 5.45390625 24.63300781 5.4140625 23.39453125 C5.3826416 22.28956299 5.3512207 21.18459473 5.31884766 20.04614258 C4.99816653 16.98248376 4.25343715 14.7936179 3 12 C1.79349461 8.02562932 0.74307014 4.08688577 0 0 Z " fill="#D4D4D4" transform="translate(141,51)"/>
<path d="M0 0 C0.66 0.33 1.32 0.66 2 1 C1.67 1.99 1.34 2.98 1 4 C-3.39529916 5.98834962 -7.22037853 6.19118486 -12 6 C-12.33 7.32 -12.66 8.64 -13 10 C-15 8 -15 8 -15.125 4.375 C-15.08375 3.26125 -15.0425 2.1475 -15 1 C-14.08476563 1.01160156 -13.16953125 1.02320313 -12.2265625 1.03515625 C-11.03804688 1.04417969 -9.84953125 1.05320313 -8.625 1.0625 C-6.84996094 1.07990234 -6.84996094 1.07990234 -5.0390625 1.09765625 C-2.08078479 1.21466593 -2.08078479 1.21466593 0 0 Z " fill="#2A2A2A" transform="translate(116,42)"/>
<path d="M0 0 C0.99 0.33 1.98 0.66 3 1 C3.03867188 2.26457031 3.03867188 2.26457031 3.078125 3.5546875 C3.13484375 4.65039062 3.1915625 5.74609375 3.25 6.875 C3.29640625 7.96554688 3.3428125 9.05609375 3.390625 10.1796875 C3.68846128 13.1332065 3.68846128 13.1332065 6.046875 14.3828125 C6.69140625 14.58648437 7.3359375 14.79015625 8 15 C7.11248047 15.14695312 7.11248047 15.14695312 6.20703125 15.296875 C1.06634287 16.26966432 -2.04086273 17.4007843 -6 21 C-6.66 21 -7.32 21 -8 21 C-8.33 21.99 -8.66 22.98 -9 24 C-8.84876423 21.35337395 -8.49998757 19.55721506 -6.703125 17.5546875 C-2.6 14 -2.6 14 1 14 C0.67 9.38 0.34 4.76 0 0 Z " fill="#F6F6F6" transform="translate(132,81)"/>
<path d="M0 0 C4.29 0 8.58 0 13 0 C12.67 1.65 12.34 3.3 12 5 C8.37 5 4.74 5 1 5 C0.67 3.35 0.34 1.7 0 0 Z " fill="#303030" transform="translate(97,101)"/>
<path d="M0 0 C-0.33 1.65 -0.66 3.3 -1 5 C-1.66 5 -2.32 5 -3 5 C-2.98839844 5.84304687 -2.97679688 6.68609375 -2.96484375 7.5546875 C-2.95130859 9.19824219 -2.95130859 9.19824219 -2.9375 10.875 C-2.92589844 11.96554688 -2.91429688 13.05609375 -2.90234375 14.1796875 C-3 17 -3 17 -4 19 C-3.34 19 -2.68 19 -2 19 C-2 19.66 -2 20.32 -2 21 C-4.97 20.67 -7.94 20.34 -11 20 C-11 19.67 -11 19.34 -11 19 C-9.02 19 -7.04 19 -5 19 C-5 13.06 -5 7.12 -5 1 C-2 0 -2 0 0 0 Z " fill="#FCFCFC" transform="translate(78,76)"/>
<path d="M0 0 C2.56278699 -0.05420701 5.12441483 -0.09377007 7.6875 -0.125 C8.40873047 -0.14175781 9.12996094 -0.15851562 9.87304688 -0.17578125 C14.01059221 -0.21356705 17.39206371 -0.12861547 21 2 C22.3125 4.125 22.3125 4.125 23 6 C22.35675781 5.7834375 21.71351562 5.566875 21.05078125 5.34375 C13.56932522 3.03847967 6.79612941 2.66534898 -1 3 C-0.67 2.01 -0.34 1.02 0 0 Z " fill="#EEEEEE" transform="translate(97,56)"/>
<path d="M0 0 C0.33 0 0.66 0 1 0 C1 1.65 1 3.3 1 5 C1.66 5 2.32 5 3 5 C3 8.3 3 11.6 3 15 C2.34 15 1.68 15 1 15 C1.02320313 16.13179687 1.04640625 17.26359375 1.0703125 18.4296875 C1.08906901 19.91145175 1.10726934 21.39322312 1.125 22.875 C1.14175781 23.62136719 1.15851563 24.36773437 1.17578125 25.13671875 C1.1933959 27.09194461 1.10320189 29.04742021 1 31 C0.34 31.66 -0.32 32.32 -1 33 C-0.67 22.11 -0.34 11.22 0 0 Z " fill="#FAFAFA" transform="translate(141,62)"/>
<path d="M0 0 C7.01850444 2.96936726 10.64999039 7.52521187 14.21484375 14.01171875 C14.47394531 14.66785156 14.73304688 15.32398437 15 16 C14.67 16.66 14.34 17.32 14 18 C13.34 17.67 12.68 17.34 12 17 C12 16.01 12 15.02 12 14 C11.34 14 10.68 14 10 14 C9.67 12.35 9.34 10.7 9 9 C8.01 8.67 7.02 8.34 6 8 C6 7.34 6 6.68 6 6 C5.195625 5.7525 4.39125 5.505 3.5625 5.25 C1 4 1 4 0.1875 1.875 C0.125625 1.25625 0.06375 0.6375 0 0 Z " fill="#D9D9D9" transform="translate(119,59)"/>
<path d="M0 0 C0.33 0 0.66 0 1 0 C1 9.57 1 19.14 1 29 C0.67 29 0.34 29 0 29 C-0.09087891 27.93458984 -0.09087891 27.93458984 -0.18359375 26.84765625 C-0.26738281 25.92855469 -0.35117188 25.00945312 -0.4375 24.0625 C-0.51871094 23.14597656 -0.59992188 22.22945312 -0.68359375 21.28515625 C-0.76044976 19.03840268 -0.76044976 19.03840268 -2 18 C-2.0979057 16.50261876 -2.12974864 15.00057108 -2.125 13.5 C-2.12757812 12.6853125 -2.13015625 11.870625 -2.1328125 11.03125 C-2 9 -2 9 -1 8 C-0.76924918 6.65252916 -0.58846937 5.29622435 -0.4375 3.9375 C-0.293125 2.638125 -0.14875 1.33875 0 0 Z " fill="#FAFAFA" transform="translate(65,60)"/>
<path d="M0 0 C1.32 0.66 2.64 1.32 4 2 C4 2.66 4 3.32 4 4 C4.66 4.33 5.32 4.66 6 5 C2.09567131 5 -0.38026598 4.31626692 -4 3 C-4 3.66 -4 4.32 -4 5 C-4.66 5 -5.32 5 -6 5 C-6.33 6.98 -6.66 8.96 -7 11 C-6.01 11.33 -5.02 11.66 -4 12 C-5.65 12 -7.3 12 -9 12 C-10.125 7.25 -10.125 7.25 -9 5 C-8.34 5 -7.68 5 -7 5 C-6.67 4.01 -6.34 3.02 -6 2 C-4.02 2 -2.04 2 0 2 C0 1.34 0 0.68 0 0 Z " fill="#E8E8E8" transform="translate(76,95)"/>
<path d="M0 0 C6.6 0 13.2 0 20 0 C20 0.66 20 1.32 20 2 C21.32 2.33 22.64 2.66 24 3 C20.37435813 2.89045592 16.74978569 2.7597504 13.125 2.625 C12.09246094 2.5940625 11.05992188 2.563125 9.99609375 2.53125 C9.00996094 2.49257813 8.02382812 2.45390625 7.0078125 2.4140625 C6.09660645 2.3826416 5.18540039 2.3512207 4.24658203 2.31884766 C2 2 2 2 0 0 Z " fill="#F5F5F5" transform="translate(93,19)"/>
<path d="M0 0 C-0.58652344 0.26683594 -1.17304687 0.53367187 -1.77734375 0.80859375 C-4.69347331 2.37172119 -6.88256157 4.44313515 -9.31640625 6.66015625 C-12.30438581 9.0380611 -15.0224013 9.11561737 -18.6875 9.0625 C-19.89986328 9.04896484 -19.89986328 9.04896484 -21.13671875 9.03515625 C-22.05904297 9.01775391 -22.05904297 9.01775391 -23 9 C-23 8.67 -23 8.34 -23 8 C-21.948125 7.71125 -20.89625 7.4225 -19.8125 7.125 C-13.72806277 5.3695324 -13.72806277 5.3695324 -8.5625 1.875 C-5.46438384 -0.39191427 -3.7521117 -0.34903365 0 0 Z " fill="#F5F5F5" transform="translate(123,122)"/>
<path d="M0 0 C4.86824006 2.06531396 7.24131264 5.61855537 10 10 C11.375 13.5 11.375 13.5 12 16 C10.1875 15.875 10.1875 15.875 8 15 C6.31736673 12.15246678 5.12862023 9.37728602 4.0625 6.25 C2.79303145 3.56171365 1.74037467 3.00480405 -1 2 C-0.67 1.34 -0.34 0.68 0 0 Z " fill="#E4E4E4" transform="translate(132,36)"/>
<path d="M0 0 C0 0.33 0 0.66 0 1 C-1.12277344 1.03738281 -2.24554688 1.07476563 -3.40234375 1.11328125 C-11.42636048 1.44369774 -18.49726287 1.86249174 -26 5 C-26.33 4.01 -26.66 3.02 -27 2 C-17.74556563 -1.47041289 -9.61861833 -1.00168798 0 0 Z " fill="#D2D2D2" transform="translate(108,21)"/>
<path d="M0 0 C0 3.89807054 -1.41213822 6.4578468 -3 10 C-3.495 11.3921875 -3.495 11.3921875 -4 12.8125 C-5 15 -5 15 -8 17 C-8.66 17.99 -9.32 18.98 -10 20 C-8.78142455 12.50107416 -5.06744995 5.63049994 0 0 Z " fill="#DFDFDF" transform="translate(71,39)"/>
<path d="M0 0 C0 0.66 0 1.32 0 2 C1.32 2.33 2.64 2.66 4 3 C4 3.99 4 4.98 4 6 C3.11957031 5.65066406 2.23914063 5.30132812 1.33203125 4.94140625 C0.17058594 4.48636719 -0.99085937 4.03132813 -2.1875 3.5625 C-3.33605469 3.11003906 -4.48460938 2.65757813 -5.66796875 2.19140625 C-8.47123233 1.18906699 -11.07112576 0.47987205 -14 0 C-14 -0.33 -14 -0.66 -14 -1 C-9.04653013 -2.59789351 -4.86717585 -1.28306814 0 0 Z " fill="#DEDEDE" transform="translate(126,23)"/>
<path d="M0 0 C0.66 0 1.32 0 2 0 C2.33 0.99 2.66 1.98 3 3 C6.16240582 5.10827055 7.50657469 5.33817465 11.1875 5.625 C12.08855469 5.69976562 12.98960938 5.77453125 13.91796875 5.8515625 C14.60503906 5.90054688 15.29210937 5.94953125 16 6 C15.67 6.66 15.34 7.32 15 8 C11.37 8 7.74 8 4 8 C3.67 7.34 3.34 6.68 3 6 C2.01 5.67 1.02 5.34 0 5 C0 3.35 0 1.7 0 0 Z " fill="#DDDDDD" transform="translate(91,116)"/>
<path d="M0 0 C0.52078125 0.65484375 1.0415625 1.3096875 1.578125 1.984375 C4.78306217 4.6517098 6.64157237 4.41433711 10.75 4.25 C11.92046875 4.21390625 13.0909375 4.1778125 14.296875 4.140625 C15.63492188 4.07101563 15.63492188 4.07101563 17 4 C16.01 5.485 16.01 5.485 15 7 C12.28515625 7.36328125 12.28515625 7.36328125 9.0625 7.3125 C8.00160156 7.30863281 6.94070312 7.30476563 5.84765625 7.30078125 C3 7 3 7 0 5 C-0.1875 2.375 -0.1875 2.375 0 0 Z " fill="#F7F7F7" transform="translate(107,88)"/>
<path d="M0 0 C0.66 1.32 1.32 2.64 2 4 C-2.10457614 6.98514628 -4.97745369 7.2954439 -10 7 C-10.33 6.01 -10.66 5.02 -11 4 C-7.7 3.67 -4.4 3.34 -1 3 C-0.67 2.01 -0.34 1.02 0 0 Z " fill="#EBEBEB" transform="translate(110,102)"/>
<path d="M0 0 C0.99 0.33 1.98 0.66 3 1 C3.10088172 5.43879572 2.99760653 9.00478695 1 13 C-0.5 11.75 -0.5 11.75 -2 10 C-2 8.68 -2 7.36 -2 6 C-1.34 5.67 -0.68 5.34 0 5 C0 3.35 0 1.7 0 0 Z " fill="#F2F2F2" transform="translate(81,100)"/>
<path d="M0 0 C4.29 0.33 8.58 0.66 13 1 C14 4 14 4 13 7 C12.34 6.67 11.68 6.34 11 6 C11.33 5.01 11.66 4.02 12 3 C8.04 3 4.08 3 0 3 C0 2.01 0 1.02 0 0 Z " fill="#E6E6E6" transform="translate(86,85)"/>
<path d="M0 0 C4.63768531 3.6438956 6.07369925 8.63094897 8 14 C7.01 14 6.02 14 5 14 C4.15675328 12.421924 3.32576082 10.8372958 2.5 9.25 C2.0359375 8.36828125 1.571875 7.4865625 1.09375 6.578125 C0 4 0 4 0 0 Z " fill="#F3F3F3" transform="translate(145,41)"/>
<path d="M0 0 C0.33 1.32 0.66 2.64 1 4 C-2.52679099 6.35119399 -4.02879485 6.21443452 -8.1875 6.125 C-9.27417969 6.10695313 -10.36085938 6.08890625 -11.48046875 6.0703125 C-12.72763672 6.03550781 -12.72763672 6.03550781 -14 6 C-14.33 5.34 -14.66 4.68 -15 4 C-10.05 3.67 -5.1 3.34 0 3 C0 2.01 0 1.02 0 0 Z " fill="#FAFAFA" transform="translate(99,89)"/>
<path d="M0 0 C0.33 0 0.66 0 1 0 C1 1.65 1 3.3 1 5 C2.98 5 4.96 5 7 5 C7 5.33 7 5.66 7 6 C5.35 6 3.7 6 2 6 C2 8.31 2 10.62 2 13 C1.67 13 1.34 13 1 13 C0.67 11.35 0.34 9.7 0 8 C-1.65 7.67 -3.3 7.34 -5 7 C-4.67 6.34 -4.34 5.68 -4 5 C-2.68 5 -1.36 5 0 5 C0 3.35 0 1.7 0 0 Z " fill="#FBFBFB" transform="translate(123,115)"/>
<path d="M0 0 C3.96 0 7.92 0 12 0 C12 0.66 12 1.32 12 2 C5.565 2.495 5.565 2.495 -1 3 C-0.67 2.01 -0.34 1.02 0 0 Z " fill="#FBFBFB" transform="translate(97,56)"/>
<path d="M0 0 C1.65 0 3.3 0 5 0 C3.68 0.33 2.36 0.66 1 1 C2.92576115 3.43929746 4.80090595 5.80090595 7 8 C4.28324005 7.63287028 2.38936287 7.27255401 0.125 5.6875 C-1 4 -1 4 -0.6875 1.8125 C-0.460625 1.214375 -0.23375 0.61625 0 0 Z " fill="#E0E0E0" transform="translate(79,85)"/>
<path d="M0 0 C1.98 0 3.96 0 6 0 C6 0.66 6 1.32 6 2 C7.32 2.33 8.64 2.66 10 3 C6.7 3 3.4 3 0 3 C-0.33 4.32 -0.66 5.64 -1 7 C-0.67 4.69 -0.34 2.38 0 0 Z " fill="#F5F5F5" transform="translate(91,113)"/>
<path d="M0 0 C0 0.66 0 1.32 0 2 C1.32 2.66 2.64 3.32 4 4 C0.66411172 5.11196276 -0.70572419 5.09809194 -4 4 C-5.3125 1.9375 -5.3125 1.9375 -6 0 C-2.25 -1.125 -2.25 -1.125 0 0 Z " fill="#F9F9F9" transform="translate(83,81)"/>
<path d="M0 0 C-0.33 1.65 -0.66 3.3 -1 5 C-1.99 5 -2.98 5 -4 5 C-4 6.98 -4 8.96 -4 11 C-4.33 11 -4.66 11 -5 11 C-5 7.7 -5 4.4 -5 1 C-2 0 -2 0 0 0 Z " fill="#F3F3F3" transform="translate(78,76)"/>
<path d="M0 0 C4.62 0.66 9.24 1.32 14 2 C14 2.33 14 2.66 14 3 C5.99625838 4.44729968 5.99625838 4.44729968 1.9375 2.625 C1.298125 2.08875 0.65875 1.5525 0 1 C0 0.67 0 0.34 0 0 Z " fill="#D1D1D1" transform="translate(92,127)"/>
<path d="M0 0 C-3.12706959 1.5635348 -6.57982443 1.39958487 -10 1 C-10.99 0.34 -11.98 -0.32 -13 -1 C-11.58566794 -1.2236337 -10.16832382 -1.42826476 -8.75 -1.625 C-7.56664063 -1.79902344 -7.56664063 -1.79902344 -6.359375 -1.9765625 C-3.67847541 -2.00319395 -2.27305911 -1.36592084 0 0 Z " fill="#E2E2E2" transform="translate(110,117)"/>
<path d="M0 0 C1.32 0.66 2.64 1.32 4 2 C4 3.98 4 5.96 4 8 C2.02 8 0.04 8 -2 8 C-0.68 7.67 0.64 7.34 2 7 C1.34 4.69 0.68 2.38 0 0 Z " fill="#D7D7D7" transform="translate(80,112)"/>
<path d="M0 0 C1.32 0.66 2.64 1.32 4 2 C4 2.66 4 3.32 4 4 C4.66 4.33 5.32 4.66 6 5 C2.09567131 5 -0.38026598 4.31626692 -4 3 C-4.33 3.66 -4.66 4.32 -5 5 C-5 4.01 -5 3.02 -5 2 C-3.35 2 -1.7 2 0 2 C0 1.34 0 0.68 0 0 Z " fill="#CECECE" transform="translate(76,95)"/>
<path d="M0 0 C0.99 0 1.98 0 3 0 C3 5.61 3 11.22 3 17 C2.67 17 2.34 17 2 17 C1.93941406 16.10796875 1.87882813 15.2159375 1.81640625 14.296875 C1.73261719 13.12640625 1.64882812 11.9559375 1.5625 10.75 C1.48128906 9.58984375 1.40007812 8.4296875 1.31640625 7.234375 C1.06752213 4.69022624 0.71885058 2.44046752 0 0 Z " fill="#E5E5E5" transform="translate(150,55)"/>
<path d="M0 0 C-0.99 0 -1.98 0 -3 0 C-3 0.66 -3 1.32 -3 2 C-5.97 2.66 -8.94 3.32 -12 4 C-12 3.34 -12 2.68 -12 2 C-11.01 2 -10.02 2 -9 2 C-9 1.34 -9 0.68 -9 0 C-5.62182575 -0.84454356 -3.32534757 -1.10844919 0 0 Z " fill="#F9F9F9" transform="translate(98,28)"/>
<path d="M0 0 C-0.804375 0.3403125 -0.804375 0.3403125 -1.625 0.6875 C-4.78500863 2.43382056 -7.2676983 4.6402849 -10 7 C-9.60856977 4.72970466 -9.11258722 3.16591802 -7.8125 1.25 C-5.21312784 -0.54267046 -3.07660784 -0.20510719 0 0 Z " fill="#DFDFDF" transform="translate(123,122)"/>
<path d="M0 0 C0.33 0 0.66 0 1 0 C1.125 5.75 1.125 5.75 0 8 C-1.98 8 -3.96 8 -6 8 C-5.38125 7.4225 -4.7625 6.845 -4.125 6.25 C-2.18652947 4.19750179 -1.09985751 2.56633418 0 0 Z " fill="#DBDBDB" transform="translate(132,112)"/>
<path d="M0 0 C0 3.29223784 -0.50518132 5.08510357 -2 8 C-4.125 9.3125 -4.125 9.3125 -6 10 C-4.6302836 6.00499382 -2.74277578 3.19990508 0 0 Z " fill="#CACACA" transform="translate(71,39)"/>
<path d="M0 0 C6.52307692 -0.36923077 6.52307692 -0.36923077 8.9375 1.5 C9.288125 1.995 9.63875 2.49 10 3 C5.82412255 4.39195915 3.86525224 2.82323219 0 1 C0 0.67 0 0.34 0 0 Z " fill="#F7F7F7" transform="translate(109,27)"/>
<path d="M0 0 C0.66 0 1.32 0 2 0 C2.66 1.98 3.32 3.96 4 6 C5.65 6 7.3 6 9 6 C9 6.33 9 6.66 9 7 C3.25 7.125 3.25 7.125 1 6 C0.375 2.9375 0.375 2.9375 0 0 Z " fill="#F6F6F6" transform="translate(74,114)"/>
<path d="M0 0 C0.99 0.33 1.98 0.66 3 1 C2.34 2.65 1.68 4.3 1 6 C0.01 6 -0.98 6 -2 6 C-2 4.35 -2 2.7 -2 1 C-1.34 0.67 -0.68 0.34 0 0 Z " fill="#E7E7E7" transform="translate(106,75)"/>
<path d="M0 0 C0.66 0 1.32 0 2 0 C3.25 6.625 3.25 6.625 1 10 C0.63883954 8.5225254 0.28624952 7.04295325 -0.0625 5.5625 C-0.25972656 4.73878906 -0.45695313 3.91507813 -0.66015625 3.06640625 C-0.82837891 2.04353516 -0.82837891 2.04353516 -1 1 C-0.67 0.67 -0.34 0.34 0 0 Z " fill="#E5E5E5" transform="translate(139,55)"/>
<path d="M0 0 C1.65 0.33 3.3 0.66 5 1 C5 1.66 5 2.32 5 3 C2.36 3.33 -0.28 3.66 -3 4 C-2.01 2.68 -1.02 1.36 0 0 Z " fill="#F8F8F8" transform="translate(111,112)"/>
<path d="M0 0 C2.25 1.9375 2.25 1.9375 4 4 C3.34 4.66 2.68 5.32 2 6 C1.566875 5.54625 1.13375 5.0925 0.6875 4.625 C-1.10798342 2.79975666 -1.10798342 2.79975666 -4 1 C-2.25 0.25 -2.25 0.25 0 0 Z " fill="#C1C1C1" transform="translate(135,96)"/>
<path d="M0 0 C-0.33 0.99 -0.66 1.98 -1 3 C-5.455 2.01 -5.455 2.01 -10 1 C-10 0.67 -10 0.34 -10 0 C-6.30458414 -0.95024979 -3.69541586 -0.95024979 0 0 Z " fill="#D3D3D3" transform="translate(122,22)"/>
</svg>
