<?xml version="1.0" encoding="UTF-8"?>
<svg version="1.1" xmlns="http://www.w3.org/2000/svg" width="185" height="178">
<path d="M0 0 C61.05 0 122.1 0 185 0 C185 58.74 185 117.48 185 178 C123.95 178 62.9 178 0 178 C0 119.26 0 60.52 0 0 Z " fill="#FCFCFC" transform="translate(0,0)"/>
<path d="M0 0 C13.78344763 10.2231475 22.06701727 23.43411272 25.17578125 40.35546875 C25.79860713 47.71112126 25.37569 54.58599824 23.6875 61.7578125 C22.67608895 66.89207469 22.48645734 72.13938075 22.17578125 77.35546875 C20.52578125 77.68546875 18.87578125 78.01546875 17.17578125 78.35546875 C17.16160156 77.29070312 17.14742188 76.2259375 17.1328125 75.12890625 C16.73401195 60.35788174 13.49858821 47.51134434 3.17578125 36.35546875 C-3.07263988 30.79209046 -9.87924524 27.75099864 -17.82421875 25.35546875 C-18.489375 25.12988281 -19.15453125 24.90429688 -19.83984375 24.671875 C-32.49453837 20.81697853 -45.44064224 23.5295284 -56.828125 29.53515625 C-65.85170499 35.01753992 -71.63520412 41.70131582 -75.82421875 51.35546875 C-76.15164062 52.08765625 -76.4790625 52.81984375 -76.81640625 53.57421875 C-80.04313846 62.30176111 -79.58196599 72.1605711 -79.82421875 81.35546875 C-81.47421875 81.02546875 -83.12421875 80.69546875 -84.82421875 80.35546875 C-85.90857639 76.73190697 -86.09919488 73.1831003 -86.32421875 69.41796875 C-86.59276844 64.63988018 -86.59276844 64.63988018 -87.34375 59.92578125 C-90.40170378 43.56697158 -86.4498137 28.26080002 -77.82421875 14.35546875 C-72.08461067 6.51924351 -65.41027395 0.84681556 -56.82421875 -3.64453125 C-55.43203125 -4.40443359 -55.43203125 -4.40443359 -54.01171875 -5.1796875 C-37.07408711 -13.09714812 -15.23334811 -10.01569834 0 0 Z " fill="#101010" transform="translate(111.82421875,15.64453125)"/>
<path d="M0 0 C9.96454179 7.91065878 17.55049009 20.21547447 19.42578125 32.92578125 C19.55822749 36.59993801 19.54735143 40.25166025 19.42578125 43.92578125 C17.22318389 41.10775228 15.42339815 38.23051926 13.67578125 35.11328125 C6.65985057 23.40286754 -3.30764281 17.5807857 -16.203125 13.6875 C-18.57421875 12.92578125 -18.57421875 12.92578125 -19.57421875 11.92578125 C-38.30110892 10.20543212 -52.37323334 13.31332096 -67.76171875 24.17578125 C-72.42522593 28.73565494 -75.9347902 34.12200796 -79.21875 39.73828125 C-79.66605469 40.46015625 -80.11335938 41.18203125 -80.57421875 41.92578125 C-80.90421875 41.92578125 -81.23421875 41.92578125 -81.57421875 41.92578125 C-82.77288465 27.14223509 -77.18703886 16.19274499 -67.9921875 5 C-49.95495402 -14.792682 -20.95356016 -14.4967594 0 0 Z " fill="#F6F6F6" transform="translate(111.57421875,22.07421875)"/>
<path d="M0 0 C2.61259239 1.81790723 2.74195408 3.17251413 3.40234375 6.2421875 C4.30434559 9.55907259 4.7969755 11.17463275 7.08984375 13.8046875 C10.89911535 15.8749438 14.80757356 17.17163267 18.96484375 18.3671875 C18.63484375 20.0171875 18.30484375 21.6671875 17.96484375 23.3671875 C17.38476562 23.43035156 16.8046875 23.49351563 16.20703125 23.55859375 C10.59670479 24.43810037 7.51203034 25.88103944 4.03515625 30.421875 C2.47032635 33.26598191 2.34005784 36.17786777 1.96484375 39.3671875 C-0.09765625 40.8046875 -0.09765625 40.8046875 -2.03515625 41.3671875 C-4.23807229 39.16427146 -4.39616233 38.37804212 -4.97265625 35.4296875 C-5.69109777 32.2627973 -6.30735787 30.35104086 -9.03515625 28.3671875 C-9.29039063 29.08261719 -9.545625 29.79804688 -9.80859375 30.53515625 C-14.98523938 42.48760237 -25.14800117 51.69306944 -36.03515625 58.3671875 C-36.96328125 58.9653125 -37.89140625 59.5634375 -38.84765625 60.1796875 C-45.28165843 63.67243154 -53.83647646 63.35441249 -60.79296875 61.71875 C-67.08998829 59.40918484 -71.95648899 55.66379654 -77.03515625 51.3671875 C-77.83953125 50.77164063 -78.64390625 50.17609375 -79.47265625 49.5625 C-82.55951424 46.91796617 -84.81950561 43.99971091 -87.22265625 40.7421875 C-90.42969751 36.38770217 -90.42969751 36.38770217 -94.03515625 32.3671875 C-96.60500458 36.22195999 -97.89329891 39.88759332 -99.03515625 44.3671875 C-100.35515625 44.3671875 -101.67515625 44.3671875 -103.03515625 44.3671875 C-103.133125 43.77550781 -103.23109375 43.18382812 -103.33203125 42.57421875 C-104.28166525 37.55589427 -105.14600924 33.94099827 -109.03515625 30.3671875 C-112.96727997 28.36537906 -116.67311481 27.02810287 -121.03515625 26.3671875 C-120.70515625 24.7171875 -120.37515625 23.0671875 -120.03515625 21.3671875 C-119.3596875 21.20863281 -118.68421875 21.05007812 -117.98828125 20.88671875 C-112.40106035 19.44322643 -112.40106035 19.44322643 -107.66015625 16.3046875 C-105.36149761 12.14941996 -103.66170546 7.82289412 -102.03515625 3.3671875 C-100.12109375 3.5703125 -100.12109375 3.5703125 -98.03515625 4.3671875 C-97.19921875 6.4765625 -97.19921875 6.4765625 -96.66015625 9.1171875 C-95.28007518 14.26312807 -93.70603948 16.51275886 -89.03515625 19.3671875 C-86.07916909 20.55537842 -83.10731282 21.5274647 -80.03515625 22.3671875 C-80.03515625 23.6871875 -80.03515625 25.0071875 -80.03515625 26.3671875 C-82.7439496 27.72158418 -85.04448893 27.43220201 -88.03515625 27.3671875 C-82.07198471 40.07815841 -72.52206193 49.12373466 -60.03515625 55.3671875 C-50.68969252 56.1234678 -42.65075075 56.50555746 -35.03515625 50.3671875 C-33.80732422 49.38492188 -33.80732422 49.38492188 -32.5546875 48.3828125 C-25.04822946 41.97790731 -17.90983363 34.56954628 -14.03515625 25.3671875 C-16.34515625 24.3771875 -18.65515625 23.3871875 -21.03515625 22.3671875 C-20.70515625 20.7171875 -20.37515625 19.0671875 -20.03515625 17.3671875 C-19.3596875 17.20863281 -18.68421875 17.05007812 -17.98828125 16.88671875 C-13.91960335 15.82251254 -10.7722283 14.99369874 -7.53515625 12.2421875 C-5.81190854 8.93929606 -5.12108721 5.91721099 -4.52734375 2.2578125 C-4.36492187 1.63390625 -4.2025 1.01 -4.03515625 0.3671875 C-2.03515625 -0.6328125 -2.03515625 -0.6328125 0 0 Z " fill="#101010" transform="translate(132.03515625,98.6328125)"/>
<path d="M0 0 C2.475 0.495 2.475 0.495 5 1 C5.14695313 1.88751953 5.14695313 1.88751953 5.296875 2.79296875 C6.25075509 7.83373164 7.19970951 11.31148276 11 15 C14.33330444 17.18388912 18.17912644 17.97130327 22 19 C21.505 21.475 21.505 21.475 21 24 C20.41992188 24.06316406 19.83984375 24.12632813 19.2421875 24.19140625 C13.6444354 25.06894164 10.54328464 26.50075003 7.0859375 31.046875 C5.40674489 34.06700559 5.14017109 36.56580831 5 40 C3.34385343 40.38218767 1.67542976 40.71395102 0 41 C-1.51029096 39.48970904 -1.3658009 37.83931457 -1.6875 35.75 C-2.55964036 31.76848964 -3.69522427 29.46406374 -7.13671875 26.99609375 C-10.58487175 25.15274152 -14.23973731 24.02780513 -18 23 C-18 21.35 -18 19.7 -18 18 C-16.453125 17.87625 -16.453125 17.87625 -14.875 17.75 C-10.56087833 16.91500871 -8.35005057 15.81708798 -5 13 C-2.43949836 8.88490808 -1.20874297 4.64901143 0 0 Z " fill="#101010" transform="translate(161,58)"/>
<path d="M0 0 C2.8791119 1.4344451 5.63742147 2.93896535 8.36328125 4.64453125 C8.03328125 5.96453125 7.70328125 7.28453125 7.36328125 8.64453125 C3.84789288 8.2051077 0.84681512 7.47534259 -2.38671875 6.08203125 C-7.09863667 4.25864539 -11.64092395 3.83848705 -16.63671875 4.64453125 C-18.67721297 5.91502765 -20.6868934 7.23884321 -22.63671875 8.64453125 C-25.51171875 8.39453125 -25.51171875 8.39453125 -27.63671875 7.64453125 C-27.25094867 5.32991078 -26.89236591 3.93194522 -25.31640625 2.16015625 C-17.80519208 -3.10744849 -8.43934165 -3.14549039 0 0 Z " fill="#111111" transform="translate(67.63671875,69.35546875)"/>
<path d="M0 0 C2.38800064 1.18217853 4.648917 2.42344444 6.88671875 3.8671875 C6.88671875 5.5171875 6.88671875 7.1671875 6.88671875 8.8671875 C3.87249747 8.42391966 1.80992998 7.82355751 -0.86328125 6.3046875 C-7.52926381 3.35627214 -13.46056287 4.670053 -20.09375 7.1328125 C-22.40052058 7.97163817 -24.6920621 8.47666828 -27.11328125 8.8671875 C-27.44328125 7.2171875 -27.77328125 5.5671875 -28.11328125 3.8671875 C-19.20635221 -1.22248624 -9.97065215 -3.62796628 0 0 Z " fill="#111111" transform="translate(113.11328125,69.1328125)"/>
<path d="M0 0 C3.01422128 0.44326784 5.07678877 1.04362999 7.75 2.5625 C12.74206413 4.77052836 17.2754503 5.00860734 22.4375 3.09765625 C23.96144641 2.39333233 25.47034413 1.65490144 26.95703125 0.875 C29 0 29 0 33 0 C33 2.73676628 32.53463493 4.42992818 30.64453125 6.4453125 C24.3722989 11.12608291 17.52495053 10.83212889 10 10 C5.75614494 8.9336688 2.34530298 6.81005451 -1 4 C-0.67 2.68 -0.34 1.36 0 0 Z " fill="#121212" transform="translate(64,130)"/>
<path d="M0 0 C1.0209375 0.37125 1.0209375 0.37125 2.0625 0.75 C1.50462372 4.05488731 0.73920754 5.54944342 -2 7.5 C-8.22577534 11.19229377 -15.96390838 10.48692014 -22.9375 9.75 C-23.9275 9.09 -24.9175 8.43 -25.9375 7.75 C-25.6075 6.43 -25.2775 5.11 -24.9375 3.75 C-23.93589844 3.79640625 -22.93429688 3.8428125 -21.90234375 3.890625 C-14.16851734 4.13831726 -6.34959514 -0.54039108 0 0 Z " fill="#121212" transform="translate(113.9375,85.25)"/>
<path d="M0 0 C2.61535506 0.38746001 4.32189923 1.18853412 6.62109375 2.53515625 C10.76318061 4.33085864 13.93355658 4.34411509 18.375 4.1875 C19.11105469 4.17396484 19.84710938 4.16042969 20.60546875 4.14648438 C22.40396743 4.11144869 24.20208422 4.05765288 26 4 C25.67 5.65 25.34 7.3 25 9 C18.84921653 10.8213485 11.45095394 11.29930495 5.40625 9.0234375 C0.38374099 6.05724558 0.38374099 6.05724558 -0.765625 2.890625 C-0.84296875 2.26671875 -0.9203125 1.6428125 -1 1 C-0.67 0.67 -0.34 0.34 0 0 Z " fill="#0A0A0A" transform="translate(46,85)"/>
<path d="M0 0 C6.27 0 12.54 0 19 0 C19.33 1.32 19.66 2.64 20 4 C14.60606401 6.75435029 10.06883134 7.88480158 4 7 C0.9375 5.5 0.9375 5.5 -1 4 C-0.67 2.68 -0.34 1.36 0 0 Z " fill="#1A1A1A" transform="translate(71,109)"/>
<path d="M0 0 C3.7952131 1.49097658 5.61042731 3.75700849 8 7 C7.04882866 8.1725131 6.08882991 9.33787015 5.125 10.5 C4.59132812 11.1496875 4.05765625 11.799375 3.5078125 12.46875 C3.01023438 12.9740625 2.51265625 13.479375 2 14 C1.34 14 0.68 14 0 14 C-1.35386936 12.34997172 -2.68678142 10.6825613 -4 9 C-4.66 8.67 -5.32 8.34 -6 8 C-5.34 6.68 -4.68 5.36 -4 4 C-3.34 4 -2.68 4 -2 4 C-1.34 2.68 -0.68 1.36 0 0 Z " fill="#EAEAEA" transform="translate(162,72)"/>
<path d="M0 0 C1.35386936 1.65002828 2.68678142 3.3174387 4 5 C4.66 5.33 5.32 5.66 6 6 C6 6.66 6 7.32 6 8 C4.34997172 9.35386936 2.6825613 10.68678142 1 12 C0.67 12.66 0.34 13.32 0 14 C-0.66 14 -1.32 14 -2 14 C-3.35386936 12.34997172 -4.68678142 10.6825613 -6 9 C-6.66 8.67 -7.32 8.34 -8 8 C-6.78549285 4.35647855 -4.23741046 0 0 0 Z " fill="#EDEDED" transform="translate(132,112)"/>
<path d="M0 0 C3.36179774 1.44077046 5.59156268 3.24750021 8 6 C8 6.66 8 7.32 8 8 C6.36739286 9.37482707 4.69774938 10.70647667 3 12 C2.34 12.66 1.68 13.32 1 14 C-1.5 11.75 -1.5 11.75 -4 9 C-4 4.31908701 -3.00354129 3.37898396 0 0 Z " fill="#F0F0F0" transform="translate(30,116)"/>
</svg>
