<?xml version="1.0" encoding="UTF-8"?>
<svg version="1.1" xmlns="http://www.w3.org/2000/svg" width="218" height="208">
<path d="M0 0 C71.94 0 143.88 0 218 0 C218 68.64 218 137.28 218 208 C146.06 208 74.12 208 0 208 C0 139.36 0 70.72 0 0 Z " fill="#FCFCFC" transform="translate(0,0)"/>
<path d="M0 0 C1.33588892 0.7542947 2.67059358 1.51069198 4.00390625 2.26953125 C5.84580222 3.28975897 5.84580222 3.28975897 8.3671875 2.41015625 C9.1509375 1.95640625 9.9346875 1.50265625 10.7421875 1.03515625 C15.74010919 -1.00944808 20.39503953 -1.77529998 25.7421875 -0.96484375 C27.734375 -0.03125 27.734375 -0.03125 29.5546875 1.09765625 C32.41465686 3.23261775 32.41465686 3.23261775 34.8046875 2.97265625 C36.89223762 1.996881 36.89223762 1.996881 39.3671875 0.47265625 C43.93115552 -1.47125606 47.84687309 -1.69007551 52.7421875 -0.96484375 C54.96494616 -0.05138129 56.92342407 0.97521425 58.953125 2.2578125 C61.30369468 3.27912989 62.36726338 2.90047514 64.7421875 2.03515625 C65.7940625 1.51953125 66.8459375 1.00390625 67.9296875 0.47265625 C72.18784931 -1.36526829 76.1674952 -1.72860477 80.7421875 -0.96484375 C82.89835856 -0.00095399 84.9074965 1.11252804 86.96484375 2.26953125 C88.85038188 3.2901511 88.85038188 3.2901511 91.4296875 2.41015625 C92.574375 1.72953125 92.574375 1.72953125 93.7421875 1.03515625 C98.57165073 -1.44856769 103.41957839 -1.68838593 108.7421875 -0.96484375 C110.8046875 -0.03125 110.8046875 -0.03125 112.6171875 1.09765625 C115.42194158 3.23493655 115.42194158 3.23493655 117.8046875 2.97265625 C119.88617772 2.00404025 119.88617772 2.00404025 122.3046875 0.47265625 C127.1842034 -1.56786858 131.52649761 -1.77009899 136.7421875 -0.96484375 C141.003466 0.85842459 144.71434205 3.51048167 147.7421875 7.03515625 C147.4296875 9.22265625 147.4296875 9.22265625 146.7421875 11.03515625 C143.75268636 10.55683607 142.21131706 9.68478176 139.6171875 7.97265625 C135.17005248 5.34654635 130.77754662 5.28630797 125.7421875 6.03515625 C124.04499623 6.98242579 122.37283514 7.97743886 120.7421875 9.03515625 C116.96577366 9.43977202 114.70001604 9.67370861 111.4921875 7.53515625 C107.11855424 5.14953811 102.61756948 5.45897474 97.7421875 6.03515625 C95.03092366 7.46137309 95.03092366 7.46137309 92.7421875 9.03515625 C88.96577366 9.43977202 86.70001604 9.67370861 83.4921875 7.53515625 C79.19798195 5.19286231 74.53204813 5.30704033 69.7421875 6.03515625 C68.37974353 6.99511677 67.04257541 7.99267409 65.7421875 9.03515625 C61.78097287 9.47529121 59.47006113 9.42335552 55.9296875 7.53515625 C51.51361619 5.45700504 47.55105529 5.40368876 42.7421875 6.03515625 C41.04499623 6.98242579 39.37283514 7.97743886 37.7421875 9.03515625 C33.76178898 9.46938154 31.48438237 9.43099351 27.9296875 7.53515625 C23.51361619 5.45700504 19.55105529 5.40368876 14.7421875 6.03515625 C13.04499623 6.98242579 11.37283514 7.97743886 9.7421875 9.03515625 C5.93861393 9.44268199 3.68207137 9.64481065 0.4296875 7.53515625 C-3.68007914 5.24133301 -7.65602264 5.3408252 -12.2578125 6.03515625 C-15.60533808 7.84894617 -15.60533808 7.84894617 -18.2578125 10.03515625 C-20.6328125 10.78515625 -20.6328125 10.78515625 -22.2578125 11.03515625 C-22.5878125 9.38515625 -22.9178125 7.73515625 -23.2578125 6.03515625 C-21.99080527 5.05104375 -20.7190506 4.07304128 -19.4453125 3.09765625 C-18.73761719 2.55238281 -18.02992187 2.00710937 -17.30078125 1.4453125 C-12.44362122 -1.90733525 -5.40537128 -2.3099078 0 0 Z " fill="#141414" transform="translate(45.2578125,82.96484375)"/>
<path d="M0 0 C2.75300275 0.05597603 4.48622434 0.5138879 6.50537109 2.42431641 C8.13185891 4.34314849 9.66956936 6.3067301 11.1875 8.3125 C11.72052734 8.98990234 12.25355469 9.66730469 12.80273438 10.36523438 C17.90208863 16.92704495 20.05725092 21.52894016 19 30 C17.30088808 34.85854164 14.25597852 38.16268098 10 41 C4.25462321 42.9151256 -1.8317698 42.96365787 -7.375 40.5 C-12.11337664 35.98726035 -15.2397772 31.75751763 -15.6875 25.0625 C-15.34423737 19.13670299 -12.6520877 15.50055251 -9 11 C-8.20722656 10.00742187 -7.41445312 9.01484375 -6.59765625 7.9921875 C-4.42335531 5.30608429 -2.22444509 2.64461805 0 0 Z " fill="#121212" transform="translate(158,23)"/>
<path d="M0 0 C3.43949857 0.43049612 4.83947138 1.55479872 6.9453125 4.23828125 C7.72455078 5.22151367 7.72455078 5.22151367 8.51953125 6.22460938 C9.04933594 6.91361328 9.57914063 7.60261719 10.125 8.3125 C10.66253906 8.98990234 11.20007813 9.66730469 11.75390625 10.36523438 C16.6864591 16.6570069 18.58466175 20.79728778 18.4453125 28.94921875 C17.73621979 33.8071258 15.55992624 36.72716459 12 40 C7.09390729 43.56806742 1.87675251 43.86141323 -4 43 C-9.31565158 40.34217421 -13.10236008 36.69291975 -15 31 C-15.68250311 25.1684861 -16.17282838 19.74224411 -12.5 14.875 C-11.34859632 13.56970943 -10.18027201 12.2792466 -9 11 C-7.55325891 9.19486767 -6.11593824 7.38215016 -4.6875 5.5625 C-1.15384615 1.15384615 -1.15384615 1.15384615 0 0 Z " fill="#131313" transform="translate(106,27)"/>
<path d="M0 0 C1.12148438 -0.02578125 2.24296875 -0.0515625 3.3984375 -0.078125 C6.93990765 0.28202451 8.69281006 1.32079301 11.625 3.25 C14.47701323 3.03061437 16.65510691 2.23809727 19.3125 1.1875 C25.06739944 -0.44124512 30.94127973 -0.80360484 36.4375 1.8125 C39.92618578 3.38582888 41.0890455 3.49236239 44.625 2.25 C45.48738281 1.73953125 45.48738281 1.73953125 46.3671875 1.21875 C49.34927117 -0.06075995 51.82550561 -0.05127343 55.0625 -0.0625 C56.17496094 -0.07925781 57.28742188 -0.09601563 58.43359375 -0.11328125 C61.93684773 0.28549797 63.70133682 1.36764151 66.625 3.25 C69.62776741 3.0661571 71.8169414 2.70876876 74.44140625 1.21875 C78.84802261 -0.73624259 83.90843785 -0.19316691 88.625 0.25 C92.0625 1.8125 92.0625 1.8125 94.625 3.25 C97.32910953 3.05684932 99.04721788 2.59047875 101.375 1.21875 C106.08988349 -0.81126928 111.59869172 -0.18870521 116.625 0.25 C120.125 1.8125 120.125 1.8125 122.625 3.25 C125.33641856 3.05632725 127.06580456 2.57111005 129.4140625 1.22265625 C134.42613129 -0.98229981 140.93704939 -0.61749439 146.08203125 1.04296875 C149.41846085 2.65856824 152.23909993 4.36335547 154.625 7.25 C154.3125 9.9375 154.3125 9.9375 153.625 12.25 C150.45967602 11.64074516 148.4701231 10.56950043 145.875 8.6875 C141.4402036 5.85712901 138.84779386 5.50388659 133.625 6.25 C131.79286032 7.17200213 131.79286032 7.17200213 130.0625 8.3125 C125.8667364 10.67738494 124.20616615 10.49940895 119.625 9.25 C118.696875 8.71375 117.76875 8.1775 116.8125 7.625 C112.34242953 5.69673431 108.30594425 6.02955579 103.625 7.25 C102.27079517 8.22154879 100.93467622 9.21921099 99.625 10.25 C94.83147691 10.99565915 92.50674826 9.64182712 88.4765625 7.15625 C85.21124163 5.55803388 82.15113643 5.5252605 78.625 6.25 C76.75395985 7.12856019 76.75395985 7.12856019 75 8.25 C71.32758249 10.42624741 69.79189958 10.9592595 65.625 10.25 C64.696875 9.59 63.76875 8.93 62.8125 8.25 C58.64069345 5.63239589 55.43783243 5.36497828 50.625 6.25 C48.72513727 7.15485272 48.72513727 7.15485272 47 8.3125 C43.625 10.25 43.625 10.25 40.0625 10.1875 C36.625 9.25 36.625 9.25 33.6875 7.6875 C29.8559575 5.88902087 26.79141152 5.45520262 22.625 6.25 C20.60043152 7.54572383 18.59821053 8.8773318 16.625 10.25 C12.55703479 10.95747221 10.20913056 10.14991629 6.6875 8.25 C2.81439255 6.18434269 0.06947306 5.59155955 -4.375 6.25 C-7.47539543 8.00494081 -9.86325667 9.73825667 -12.375 12.25 C-14.5 11.875 -14.5 11.875 -16.375 11.25 C-16.15081061 7.32668566 -15.41547908 6.28871912 -12.5 3.5 C-8.17222764 0.3840039 -5.22446113 0.07173173 0 0 Z " fill="#111111" transform="translate(38.375,102.75)"/>
<path d="M0 0 C2.109375 0.00390625 2.109375 0.00390625 5 1 C7.3826858 3.42780084 9.29268403 6.16223704 11.25 8.9375 C11.79140625 9.67935547 12.3328125 10.42121094 12.890625 11.18554688 C18.00926231 18.24286807 18.93192796 23.11491412 18 32 C16.38685736 36.1093418 13.90629931 38.3147493 10.4375 40.9375 C5.20979527 42.55333601 0.40363289 43.00434015 -5 42 C-9.54318655 39.38552472 -13.08856752 35.93480406 -15 31 C-15.3359375 28.44921875 -15.3359375 28.44921875 -15.375 25.6875 C-15.40335938 24.78386719 -15.43171875 23.88023438 -15.4609375 22.94921875 C-14.40003691 16.1612531 -9.63677612 11.07678084 -5.25 6.0625 C-4.74339844 5.47404297 -4.23679687 4.88558594 -3.71484375 4.27929688 C-2.48171786 2.84840552 -1.24159301 1.42355061 0 0 Z " fill="#0F0F0F" transform="translate(53,23)"/>
<path d="M0 0 C2.125 0.375 2.125 0.375 4 1 C4.01417969 1.75925781 4.02835938 2.51851562 4.04296875 3.30078125 C4.18572463 6.27550504 4.39730586 9.08191975 5 12 C7.28504837 13.97127988 7.28504837 13.97127988 10 15 C12.12738138 17.71424521 12.92909561 19.5239277 13.4375 22.9375 C12.87672496 26.86292527 11.49711051 28.94797605 9 32 C4.85263547 34.54754257 0.74545484 34.85435105 -4 34 C-7.23120052 31.44196626 -9.69721118 29.20170728 -10.2734375 25.01171875 C-10.46787964 20.56198522 -10.49796372 18.64600699 -7.6875 15 C-5 13 -5 13 -2 12 C-2.02320313 11.30132812 -2.04640625 10.60265625 -2.0703125 9.8828125 C-2.09738281 8.51769531 -2.09738281 8.51769531 -2.125 7.125 C-2.14820313 6.22007812 -2.17140625 5.31515625 -2.1953125 4.3828125 C-2 2 -2 2 0 0 Z " fill="#121212" transform="translate(65,151)"/>
<path d="M0 0 C2.125 0.375 2.125 0.375 4 1 C4.00257813 1.74765625 4.00515625 2.4953125 4.0078125 3.265625 C4.12629975 6.28310036 4.32815091 9.05321884 5 12 C7.82857071 14.63844898 7.82857071 14.63844898 11 16 C12.7246216 19.4492432 12.36610104 23.22131431 12 27 C10.33916579 30.9029604 8.85641568 32.40184575 5 34 C1.92680117 34.52227887 -0.92898721 34.55289179 -4 34 C-7.21840301 31.45209761 -9.73534937 29.20831431 -10.23828125 25.01171875 C-10.3686779 20.92824466 -10.35222971 18.60382237 -8.25 15 C-5.96601713 12.969793 -4.89150037 12.58315974 -2 12 C-2.02320313 11.30132812 -2.04640625 10.60265625 -2.0703125 9.8828125 C-2.09738281 8.51769531 -2.09738281 8.51769531 -2.125 7.125 C-2.14820313 6.22007813 -2.17140625 5.31515625 -2.1953125 4.3828125 C-2 2 -2 2 0 0 Z " fill="#111111" transform="translate(168,120)"/>
<path d="M0 0 C3.69230769 0.69230769 3.69230769 0.69230769 5 2 C5.10475868 3.62375955 5.18402562 5.24920271 5.25 6.875 C5.42672917 9.57600032 5.42672917 9.57600032 6 12 C8.32005031 14.02642108 8.32005031 14.02642108 11 15 C13.68121076 19.02181615 13.81344335 22.27236391 13 27 C11.28922026 30.0717718 9.19028693 32.40485654 6 34 C2.94098826 34.42068924 0.05241674 34.49028455 -3 34 C-6 31.5625 -6 31.5625 -8 29 C-8.33 28.67 -8.66 28.34 -9 28 C-9.54719505 23.15597828 -9.69957681 19.22425941 -7.25 14.9375 C-4.9756302 12.97901489 -3.84589909 12.57994162 -1 12 C-1.01160156 11.21753906 -1.02320312 10.43507812 -1.03515625 9.62890625 C-1.04417969 8.61699219 -1.05320312 7.60507813 -1.0625 6.5625 C-1.07410156 5.55316406 -1.08570312 4.54382813 -1.09765625 3.50390625 C-1 1 -1 1 0 0 Z " fill="#101010" transform="translate(126,120)"/>
<path d="M0 0 C5.5493772 4.09596888 10.85115108 9.21312951 12.515625 16.1484375 C12.78385311 21.14897584 11.18701554 24.2818152 8 28 C4.58449489 30.59107284 1.16674536 30.50288306 -3 30 C-6.64363431 27.91673756 -9.7625233 25.08367311 -11 21 C-11.82767871 16.55122693 -10.70033739 14.15234767 -8.3125 10.5 C-5.7099058 6.84647703 -2.94688951 3.38025562 0 0 Z " fill="#F5F5F5" transform="translate(54,30)"/>
<path d="M0 0 C1.32 0.33 2.64 0.66 4 1 C4 4.63 4 8.26 4 12 C6.475 12.99 6.475 12.99 9 14 C11.96685686 16.80648622 12.90861117 18.3717018 13.5 22.4375 C12.79406161 27.46731103 10.53695405 30.46304595 7 34 C2.22262802 34.7271752 -1.79537259 34.70269932 -6 32.25 C-8.93966354 28.94287852 -9.83471951 27.09498324 -10.5 22.6875 C-9.85082103 17.89980512 -7.76411593 15.01312443 -4 12 C-3.01 12 -2.02 12 -1 12 C-1.01160156 11.21753906 -1.02320313 10.43507812 -1.03515625 9.62890625 C-1.04417969 8.61699219 -1.05320313 7.60507813 -1.0625 6.5625 C-1.07410156 5.55316406 -1.08570313 4.54382813 -1.09765625 3.50390625 C-1 1 -1 1 0 0 Z " fill="#101010" transform="translate(147,151)"/>
<path d="M0 0 C1.32 0.33 2.64 0.66 4 1 C4 4.63 4 8.26 4 12 C6.475 12.99 6.475 12.99 9 14 C11.96685686 16.80648622 12.90861117 18.3717018 13.5 22.4375 C12.90857987 26.65136846 11.71830137 28.75314003 9 32 C4.8425469 34.5450237 0.75397988 34.84741174 -4 34 C-8.32744906 30.66425802 -9.71348759 28.12837789 -10.4375 22.75 C-9.87123943 17.89633799 -7.80347994 15.04463479 -4 12 C-3.01 12 -2.02 12 -1 12 C-1.01160156 11.21753906 -1.02320312 10.43507812 -1.03515625 9.62890625 C-1.04417969 8.61699219 -1.05320312 7.60507813 -1.0625 6.5625 C-1.07410156 5.55316406 -1.08570312 4.54382813 -1.09765625 3.50390625 C-1 1 -1 1 0 0 Z " fill="#0E0E0E" transform="translate(106,151)"/>
<path d="M0 0 C1.32 0.33 2.64 0.66 4 1 C4 4.63 4 8.26 4 12 C6.475 12.99 6.475 12.99 9 14 C11.58084325 15.74381301 12.78694857 16.96433334 13.421875 20.05078125 C13.67923417 24.30435641 13.35843153 27.14201586 10.625 30.5 C6.76642152 34.17483665 4.4157109 34.34320334 -0.7421875 34.28515625 C-4.11376856 33.85933373 -5.74020743 32.46522826 -8 30 C-10.52599898 26.51171569 -10.50729677 23.20331607 -10 19 C-8.27139926 15.91468871 -6.31995938 13.4035847 -2.828125 12.3359375 C-2.22484375 12.22507813 -1.6215625 12.11421875 -1 12 C-1.01160156 11.21753906 -1.02320312 10.43507812 -1.03515625 9.62890625 C-1.04417969 8.61699219 -1.05320312 7.60507813 -1.0625 6.5625 C-1.07410156 5.55316406 -1.08570312 4.54382813 -1.09765625 3.50390625 C-1 1 -1 1 0 0 Z " fill="#111111" transform="translate(85,120)"/>
<path d="M0 0 C1.32 0.33 2.64 0.66 4 1 C4 4.63 4 8.26 4 12 C6.475 12.99 6.475 12.99 9 14 C12.00806518 16.84546706 12.92017827 18.36142613 13.4375 22.5 C12.86511827 27.07905384 11.40520993 29.43265046 8.375 32.8125 C4.64578296 34.67710852 1.08075945 34.66312341 -3 34 C-6.47060168 31.93240751 -8.77725393 29.89055567 -10 26 C-10.5333674 22.466441 -10.67439184 20.09349339 -8.76171875 16.9921875 C-7.2531122 15.14292786 -5.8644209 13.49244398 -4 12 C-3.01 12 -2.02 12 -1 12 C-1.01160156 11.21753906 -1.02320313 10.43507812 -1.03515625 9.62890625 C-1.04417969 8.61699219 -1.05320312 7.60507813 -1.0625 6.5625 C-1.07410156 5.55316406 -1.08570313 4.54382813 -1.09765625 3.50390625 C-1 1 -1 1 0 0 Z " fill="#101010" transform="translate(44,120)"/>
<path d="M0 0 C0.66 0 1.32 0 2 0 C12.66539347 11.31231078 12.66539347 11.31231078 12.8125 18 C12.18180486 22.78277147 10.52240057 25.77362176 6.75 28.8125 C3.15659371 30.36419817 0.88369763 30.54508037 -3 30 C-6.47241719 27.97248124 -8.70279738 25.89160785 -10 22 C-10.91388621 16.84900502 -10.76540814 13.86347935 -7.83984375 9.51953125 C-5.38634969 6.18502833 -2.84078184 3.01309156 0 0 Z " fill="#F7F7F7" transform="translate(159,30)"/>
<path d="M0 0 C5.8415686 2.31557674 9.07922194 7.66820231 12 13 C13.20113041 18.07620589 12.84901114 21.6132818 10.125 26.0625 C6.4557327 29.40800842 3.3995982 29.52492288 -1.4453125 29.46875 C-5.22023309 28.77610402 -6.82702816 27.13539994 -8.9921875 24.0546875 C-10.70132977 20.57015715 -11.03102833 17.6696469 -10 14 C-8.30096286 10.74895777 -6.25179684 7.88889058 -4 5 C-3.21625 3.989375 -2.4325 2.97875 -1.625 1.9375 C-1.08875 1.298125 -0.5525 0.65875 0 0 Z " fill="#F7F7F7" transform="translate(106,35)"/>
<path d="M0 0 C1.9375 1.0625 1.9375 1.0625 3 3 C2.66666667 9.33333333 2.66666667 9.33333333 0 12 C-2.9375 12.375 -2.9375 12.375 -6 12 C-8.35210784 9.88310295 -8.91810953 8.55958485 -9.375 5.4375 C-9 3 -9 3 -7.875 1.1875 C-5.12844028 -0.55198782 -3.18153026 -0.39769128 0 0 Z " fill="#EAEAEA" transform="translate(69,168)"/>
<path d="M0 0 C1.8125 1.125 1.8125 1.125 3 3 C3.39310741 6.14485925 3.47555213 8.13281671 1.9375 10.9375 C-1.21566824 12.66665678 -3.62508255 11.8590699 -7 11 C-9 8 -9 8 -8.8125 4.9375 C-7.47741613 0.1106583 -4.61266905 -0.57658363 0 0 Z " fill="#EBEBEB" transform="translate(110,168)"/>
<path d="M0 0 C0.66 0.66 1.32 1.32 2 2 C1.8125 5.5 1.8125 5.5 1 9 C-2.22143276 11.14762184 -3.2595467 11.561068 -7 11 C-9.2855347 8.87208838 -9.92303658 7.52591672 -10.375 4.4375 C-10 2 -10 2 -8.9375 0.125 C-5.82785011 -1.68060316 -3.38260527 -0.79952488 0 0 Z " fill="#EBEBEB" transform="translate(132,138)"/>
<path d="M0 0 C0.66 0.66 1.32 1.32 2 2 C1.8125 5.5 1.8125 5.5 1 9 C-2 11 -2 11 -5.0625 10.8125 C-8 10 -8 10 -10 7 C-10.35242362 4.18061103 -10.34645957 2.61139923 -8.9375 0.125 C-5.82785011 -1.68060316 -3.38260527 -0.79952488 0 0 Z " fill="#EDEDED" transform="translate(173,138)"/>
<path d="M0 0 C1.8125 1.125 1.8125 1.125 3 3 C3.39769128 6.18153026 3.55198782 8.12844028 1.8125 10.875 C-0.65507108 12.40659584 -2.14519831 12.42822025 -5 12 C-6.8125 10.9375 -6.8125 10.9375 -8 9 C-8.375 5.4375 -8.375 5.4375 -8 2 C-4.76746204 -0.15502531 -3.74849077 -0.46856135 0 0 Z " fill="#F1F1F1" transform="translate(151,168)"/>
<path d="M0 0 C1 1 1 1 1.25 4.375 C1 8 1 8 -0.1875 9.9375 C-2.66049093 11.38718434 -4.17884512 11.42317323 -7 11 C-8.8125 9.875 -8.8125 9.875 -10 8 C-10.39310741 4.85514075 -10.47555213 2.86718329 -8.9375 0.0625 C-5.84787273 -1.63181173 -3.32782582 -0.73951685 0 0 Z " fill="#F1F1F1" transform="translate(91,138)"/>
<path d="M0 0 C1 1 1 1 1.25 4.375 C1 8 1 8 -0.1875 9.9375 C-2.66049093 11.38718434 -4.17884512 11.42317323 -7 11 C-8.8125 9.875 -8.8125 9.875 -10 8 C-10.39310741 4.85514075 -10.47555213 2.86718329 -8.9375 0.0625 C-5.84787273 -1.63181173 -3.32782582 -0.73951685 0 0 Z " fill="#F1F1F1" transform="translate(50,138)"/>
</svg>
