<?xml version="1.0" encoding="UTF-8"?>
<svg version="1.1" xmlns="http://www.w3.org/2000/svg" width="201" height="159">
<path d="M0 0 C2.58404113 7.59062081 0.71039956 15.5972048 -2 22.9375 C-3.92062476 26.37027308 -5.94769993 29.58132727 -8.16015625 32.83203125 C-12.34256923 39.89151813 -13.0193379 47.34040825 -11.5703125 55.296875 C-9.87797797 61.35585047 -6.54223045 65.64700762 -2 69.9375 C2.39529293 72.13514647 8.43731859 71.59837702 13.10546875 70.39453125 C18.74722603 67.74178445 20.76417523 62.47162825 23 56.9375 C25.51893013 49.38070961 24.50280663 41.53927043 21.28125 34.3828125 C19.44658304 30.88128348 17.3932381 27.53077912 15.32421875 24.1640625 C11.67092494 18.02135609 10.88575555 11.01113526 11 3.9375 C12.46583851 -0.52833851 12.46583851 -0.52833851 14 -2.0625 C22.72685931 -3.47848672 31.63562879 -3.14670636 40.44140625 -3.01171875 C41.9006268 -2.99244098 43.35985031 -2.97338681 44.81907654 -2.95454407 C47.85219468 -2.91389 50.88520483 -2.86870182 53.91821289 -2.82055664 C57.80861205 -2.75944069 61.69904126 -2.71277371 65.58967686 -2.66972637 C68.59141777 -2.63445935 71.59297632 -2.59022317 74.59455681 -2.54337502 C76.03027061 -2.52232732 77.46603408 -2.50442565 78.90182686 -2.4897213 C80.89764577 -2.46823347 82.89330343 -2.43306725 84.88891602 -2.3972168 C86.59121117 -2.37270699 86.59121117 -2.37270699 88.32789612 -2.34770203 C91 -2.0625 91 -2.0625 93 -0.0625 C93.25 2.9375 93.25 2.9375 93 5.9375 C89.21071555 9.72678445 82.98931227 8.91039148 77.86248779 8.98025513 C74.35236199 8.95803751 70.84526266 8.89435996 67.3359375 8.81640625 C66.06271637 8.79279526 64.78949524 8.76918427 63.47769165 8.74485779 C60.12726588 8.68167692 56.77702511 8.61341957 53.42675781 8.54260254 C49.99422388 8.47132967 46.56156235 8.40686821 43.12890625 8.34179688 C36.41913734 8.21324071 29.7095293 8.0779793 23 7.9375 C23.44699611 9.84539382 23.90221784 11.75136155 24.36083984 13.65649414 C24.61344574 14.71808243 24.86605164 15.77967072 25.12631226 16.87342834 C26.34122685 21.13420161 28.29242035 24.63911034 30.625 28.375 C36.34534973 37.74297781 37.30084277 46.62993803 35.375 57.5625 C32.74833533 67.52943307 26.18707797 74.95110859 18 80.9375 C11.48820597 83.84455091 3.61509843 84.04048282 -3.1875 81.8125 C-12.20260358 77.89446706 -17.81332185 69.98250495 -21.8125 61.25 C-25.2583254 51.63796071 -25.11525829 41.31512691 -21 31.9375 C-19.3317464 29.29511249 -17.59967728 26.75724727 -15.71875 24.26171875 C-13.9598411 20.85982903 -13.21736747 17.95647122 -12.39257812 14.22973633 C-12.12964966 13.05316971 -11.86672119 11.87660309 -11.5958252 10.66438293 C-11.39920288 9.76451157 -11.20258057 8.8646402 -11 7.9375 C-11.79069382 7.9544693 -12.58138763 7.9714386 -13.39604187 7.98892212 C-20.8553984 8.147151 -28.3148554 8.29532701 -35.77463055 8.43227577 C-39.60957494 8.50303182 -43.44436274 8.57764336 -47.27905273 8.66113281 C-50.98122361 8.74159405 -54.68346153 8.81184034 -58.38596535 8.87507248 C-59.79698615 8.90095306 -61.20794496 8.93048495 -62.61881065 8.96376419 C-64.598129 9.00982204 -66.57776434 9.04157995 -68.55737305 9.07275391 C-69.68322311 9.09496002 -70.80907318 9.11716614 -71.96903992 9.14004517 C-75.30556472 8.91708051 -78.54625438 8.39124562 -81 5.9375 C-81.1875 3 -81.1875 3 -81 -0.0625 C-78.21223328 -2.85026672 -76.47317016 -2.34388932 -72.56591797 -2.3972168 C-71.90547989 -2.40886871 -71.24504181 -2.42052063 -70.56459045 -2.43252563 C-68.37381533 -2.46860286 -66.18315238 -2.49041545 -63.9921875 -2.51171875 C-62.46720403 -2.5329761 -60.94223031 -2.55494352 -59.41726685 -2.57759094 C-56.21442026 -2.62305483 -53.01158488 -2.6618178 -49.80859375 -2.69555664 C-45.71983202 -2.73888073 -41.63140008 -2.79563128 -37.54287529 -2.8571043 C-34.38920159 -2.90352337 -31.2354745 -2.94421277 -28.08169937 -2.98307228 C-26.57552398 -3.00202107 -25.0693654 -3.0223628 -23.56322861 -3.04416466 C-3.22650633 -3.32733466 -3.22650633 -3.32733466 0 0 Z " fill="#1D1D1D" transform="translate(95,73.0625)"/>
<path d="M0 0 C2.58404113 7.59062081 0.71039956 15.5972048 -2 22.9375 C-3.92062476 26.37027308 -5.94769993 29.58132727 -8.16015625 32.83203125 C-12.34256923 39.89151813 -13.0193379 47.34040825 -11.5703125 55.296875 C-9.87797797 61.35585047 -6.54223045 65.64700762 -2 69.9375 C2.39529293 72.13514647 8.43731859 71.59837702 13.10546875 70.39453125 C18.74722603 67.74178445 20.76417523 62.47162825 23 56.9375 C25.51893013 49.38070961 24.50280663 41.53927043 21.28125 34.3828125 C19.44658304 30.88128348 17.3932381 27.53077912 15.32421875 24.1640625 C11.67092494 18.02135609 10.88575555 11.01113526 11 3.9375 C12.46583851 -0.52833851 12.46583851 -0.52833851 14 -2.0625 C22.72685931 -3.47848672 31.63562879 -3.14670636 40.44140625 -3.01171875 C41.9006268 -2.99244098 43.35985031 -2.97338681 44.81907654 -2.95454407 C47.85219468 -2.91389 50.88520483 -2.86870182 53.91821289 -2.82055664 C57.80861205 -2.75944069 61.69904126 -2.71277371 65.58967686 -2.66972637 C68.59141777 -2.63445935 71.59297632 -2.59022317 74.59455681 -2.54337502 C76.03027061 -2.52232732 77.46603408 -2.50442565 78.90182686 -2.4897213 C80.89764577 -2.46823347 82.89330343 -2.43306725 84.88891602 -2.3972168 C86.59121117 -2.37270699 86.59121117 -2.37270699 88.32789612 -2.34770203 C91 -2.0625 91 -2.0625 93 -0.0625 C93.25 2.9375 93.25 2.9375 93 5.9375 C89.21071555 9.72678445 82.98931227 8.91039148 77.86248779 8.98025513 C74.35236199 8.95803751 70.84526266 8.89435996 67.3359375 8.81640625 C66.06271637 8.79279526 64.78949524 8.76918427 63.47769165 8.74485779 C60.12726588 8.68167692 56.77702511 8.61341957 53.42675781 8.54260254 C49.99422388 8.47132967 46.56156235 8.40686821 43.12890625 8.34179688 C36.41913734 8.21324071 29.7095293 8.0779793 23 7.9375 C23.44699611 9.84539382 23.90221784 11.75136155 24.36083984 13.65649414 C24.61344574 14.71808243 24.86605164 15.77967072 25.12631226 16.87342834 C26.34122685 21.13420161 28.29242035 24.63911034 30.625 28.375 C36.34534973 37.74297781 37.30084277 46.62993803 35.375 57.5625 C32.74833533 67.52943307 26.18707797 74.95110859 18 80.9375 C11.48820597 83.84455091 3.61509843 84.04048282 -3.1875 81.8125 C-12.20260358 77.89446706 -17.81332185 69.98250495 -21.8125 61.25 C-25.2583254 51.63796071 -25.11525829 41.31512691 -21 31.9375 C-19.3317464 29.29511249 -17.59967728 26.75724727 -15.71875 24.26171875 C-13.9598411 20.85982903 -13.21736747 17.95647122 -12.39257812 14.22973633 C-12.12964966 13.05316971 -11.86672119 11.87660309 -11.5958252 10.66438293 C-11.39920288 9.76451157 -11.20258057 8.8646402 -11 7.9375 C-11.79069382 7.9544693 -12.58138763 7.9714386 -13.39604187 7.98892212 C-20.8553984 8.147151 -28.3148554 8.29532701 -35.77463055 8.43227577 C-39.60957494 8.50303182 -43.44436274 8.57764336 -47.27905273 8.66113281 C-50.98122361 8.74159405 -54.68346153 8.81184034 -58.38596535 8.87507248 C-59.79698615 8.90095306 -61.20794496 8.93048495 -62.61881065 8.96376419 C-64.598129 9.00982204 -66.57776434 9.04157995 -68.55737305 9.07275391 C-69.68322311 9.09496002 -70.80907318 9.11716614 -71.96903992 9.14004517 C-75.30556472 8.91708051 -78.54625438 8.39124562 -81 5.9375 C-81.1875 3 -81.1875 3 -81 -0.0625 C-78.21223328 -2.85026672 -76.47317016 -2.34388932 -72.56591797 -2.3972168 C-71.90547989 -2.40886871 -71.24504181 -2.42052063 -70.56459045 -2.43252563 C-68.37381533 -2.46860286 -66.18315238 -2.49041545 -63.9921875 -2.51171875 C-62.46720403 -2.5329761 -60.94223031 -2.55494352 -59.41726685 -2.57759094 C-56.21442026 -2.62305483 -53.01158488 -2.6618178 -49.80859375 -2.69555664 C-45.71983202 -2.73888073 -41.63140008 -2.79563128 -37.54287529 -2.8571043 C-34.38920159 -2.90352337 -31.2354745 -2.94421277 -28.08169937 -2.98307228 C-26.57552398 -3.00202107 -25.0693654 -3.0223628 -23.56322861 -3.04416466 C-3.22650633 -3.32733466 -3.22650633 -3.32733466 0 0 Z M-79 -0.0625 C-79.042721 1.60361905 -79.04063832 3.27132885 -79 4.9375 C-77.907817 6.25497011 -77.907817 6.25497011 -75.22227478 6.05775452 C-73.36029198 6.0544236 -73.36029198 6.0544236 -71.46069336 6.05102539 C-70.77779739 6.05117142 -70.09490143 6.05131744 -69.39131165 6.0514679 C-67.12412386 6.05076876 -64.85701726 6.0429764 -62.58984375 6.03515625 C-61.02185613 6.03329207 -59.45386793 6.03186817 -57.88587952 6.03086853 C-53.75123497 6.02704334 -49.61662534 6.01721306 -45.48199463 6.00616455 C-41.26599602 5.99595044 -37.04999178 5.99137091 -32.83398438 5.98632812 C-24.55597353 5.97559079 -16.2779911 5.95851436 -8 5.9375 C-8.57873158 8.47866461 -9.17183525 11.0150208 -9.7734375 13.55078125 C-9.93384521 14.26206177 -10.09425293 14.97334229 -10.25952148 15.70617676 C-11.6332774 21.41923089 -13.96339476 25.821246 -17.4140625 30.60546875 C-22.51927389 38.11239288 -21.80373461 47.19487678 -21 55.9375 C-20.17828982 59.66787747 -18.95234273 62.66534925 -17 65.9375 C-16.36384766 67.00871094 -16.36384766 67.00871094 -15.71484375 68.1015625 C-12.19998554 73.32979171 -7.94027421 77.64373075 -2 79.9375 C5.59594724 80.91631748 13.44230059 81.22007921 20 76.9375 C26.85236031 71.62858395 31.05190591 65.41215815 33 56.9375 C33.38448238 53.51737053 33.5195756 50.12776415 33.5625 46.6875 C33.57732422 45.84799805 33.59214844 45.00849609 33.60742188 44.14355469 C33.49670385 37.47147538 31.61563188 32.62687923 27.77368164 27.20776367 C24.68593001 22.76464473 23.15257504 18.38707446 21.84375 13.16015625 C21.57449707 12.11704285 21.57449707 12.11704285 21.29980469 11.05285645 C20.86090121 9.34917946 20.42967236 7.64352849 20 5.9375 C20.87474472 5.93972061 21.74948944 5.94194122 22.65074158 5.94422913 C30.87675346 5.96422978 39.10275723 5.97947298 47.3287878 5.98931217 C51.55831371 5.99454056 55.7878196 6.0016374 60.01733398 6.01293945 C64.09568543 6.02376991 68.17401757 6.02977717 72.25238228 6.03237724 C73.81177639 6.03423121 75.3711694 6.03785127 76.93055534 6.04323006 C79.10729162 6.05044262 81.28394714 6.05149085 83.46069336 6.05102539 C84.70201523 6.053246 85.9433371 6.05546661 87.22227478 6.05775452 C89.907817 6.25497011 89.907817 6.25497011 91 4.9375 C91.04063832 3.27132885 91.042721 1.60361905 91 -0.0625 C81.10810624 -0.08562428 71.21621886 -0.10341552 61.32430363 -0.11431217 C56.7315736 -0.11954082 52.138862 -0.12663812 47.54614258 -0.13793945 C43.11766312 -0.148769 38.68920144 -0.15477698 34.26070976 -0.15737724 C32.56734372 -0.15923137 30.87397871 -0.16285175 29.18062019 -0.16823006 C26.81708768 -0.1754414 24.45362955 -0.1764909 22.09008789 -0.17602539 C21.38302704 -0.17962067 20.67596619 -0.18321594 19.94747925 -0.18692017 C16.69361952 -0.45899445 16.69361952 -0.45899445 14 0.9375 C12.76525743 14.17555965 16.6962945 23.31476728 23.51171875 34.40625 C27.234163 40.73733628 26.80662255 48.78781046 26 55.9375 C24.00121311 62.97358838 19.99173383 67.84742477 14 71.9375 C9.48258643 74.19620678 3.87731505 73.61141473 -1 72.9375 C-6.74769565 70.10926881 -10.56853074 64.6891577 -13.1484375 58.94140625 C-15.40013408 50.99849492 -15.4599279 41.94078025 -11.8125 34.4375 C-10.91408547 32.91376853 -9.97751235 31.41173738 -9 29.9375 C-2.77351021 20.26167638 -1.32943548 12.57101462 -2 0.9375 C-3.67335996 -0.73585996 -5.71387909 -0.18212895 -7.94747925 -0.18692017 C-8.6545401 -0.18332489 -9.36160095 -0.17972961 -10.09008789 -0.17602539 C-10.83150528 -0.17617142 -11.57292267 -0.17631744 -12.33680725 -0.1764679 C-14.79878621 -0.17576865 -17.26069043 -0.16797574 -19.72265625 -0.16015625 C-21.42516539 -0.15829211 -23.12767507 -0.15686819 -24.83018494 -0.15586853 C-29.31993073 -0.15204302 -33.80964438 -0.14221247 -38.29937744 -0.13116455 C-42.87731491 -0.12095113 -47.45525756 -0.11637106 -52.03320312 -0.11132812 C-61.02214957 -0.10059022 -70.01107212 -0.08351341 -79 -0.0625 Z " fill="#F1F1F1" transform="translate(95,73.0625)"/>
<path d="M0 0 C6.46153846 0.46153846 6.46153846 0.46153846 9 3 C9.45662449 4.46732383 9.86866654 5.94883283 10.25 7.4375 C11.37859195 10.99427463 11.65546985 11.76781664 14.875 13.9375 C15.90625 14.288125 16.9375 14.63875 18 15 C23 17 23 17 24 18 C23.875 21.375 23.875 21.375 23 25 C20.33818817 27.11379174 17.53369485 28.21270059 14.4375 29.625 C10.44994537 31.84030813 9.28852978 34.9248187 7.7265625 39.07421875 C7 41 7 41 6 42 C2.9295063 42.41493158 1.4673392 42.31614123 -1.125 40.5625 C-3.01839227 37.9748639 -3.40321073 36.54254226 -4.125 33.5 C-5.0360514 30.36536552 -5.49886962 29.30034358 -8.33984375 27.59765625 C-10.11264315 26.92363639 -11.90802776 26.30548936 -13.72265625 25.75390625 C-16 25 -16 25 -18 23 C-17.79084622 20.28100082 -17.44328227 18.55648974 -15.73046875 16.40625 C-13.65444857 14.71919071 -12.1057155 14.45430024 -9.5 13.9375 C-7.06554865 13.3146885 -7.06554865 13.3146885 -5 12 C-3.70223449 9.4301673 -3.09389952 7.09589314 -2.53515625 4.27734375 C-2 2 -2 2 0 0 Z " fill="#1E1E1E" transform="translate(146,5)"/>
<path d="M0 0 C2.6875 0.3125 2.6875 0.3125 4.8125 1.75 C6.71720456 4.35309623 7.09359539 5.80967061 7.8125 8.875 C8.40762965 11.27904135 8.40762965 11.27904135 9.6875 13.3125 C12.25644293 14.60769326 14.59337599 15.21895119 17.41015625 15.77734375 C19.6875 16.3125 19.6875 16.3125 21.6875 18.3125 C22.125 20.6875 22.125 20.6875 21.6875 23.3125 C18.94888427 26.13669747 16.12015031 27.55935993 12.5625 29.0625 C10.10755832 30.21857948 8.94612977 30.84884737 7.61328125 33.23828125 C6.85386991 35.34080562 6.85386991 35.34080562 6.35546875 37.41015625 C5.54878841 39.70754413 4.56712721 40.78559296 2.6875 42.3125 C0.1875 42.8125 0.1875 42.8125 -2.3125 42.3125 C-4.4112557 39.64869469 -5.57113567 36.72573209 -6.875 33.625 C-8.07460668 30.30561563 -8.07460668 30.30561563 -10.3125 28.3125 C-12.21428785 27.71188767 -12.21428785 27.71188767 -14.3125 27.3125 C-17.26108104 26.7054392 -18.11197406 26.51302594 -20.3125 24.3125 C-20.6875 21.375 -20.6875 21.375 -20.3125 18.3125 C-18.02077517 15.73430957 -15.44009496 15.02224037 -12.25 14 C-8.97749036 12.84035373 -8.44093918 12.50944007 -6.4375 9.4375 C-6.06625 8.40625 -5.695 7.375 -5.3125 6.3125 C-2.94678571 0.39821429 -2.94678571 0.39821429 0 0 Z " fill="#1B1B1B" transform="translate(45.3125,12.6875)"/>
<path d="M0 0 C3 0.25 3 0.25 5 2.25 C5.50549721 3.71371993 5.95864599 5.19597299 6.375 6.6875 C7.27600394 9.48464657 7.78777567 11.02313951 9.8125 13.1875 C12.46786694 14.47724966 15.19593145 15.33562982 18 16.25 C20 18.25 20 18.25 20.3125 20.6875 C20 23.25 20 23.25 18.9375 24.875 C17 26.25 17 26.25 13.5625 27.6875 C10.05792592 29.22459389 8.31030909 30.25515489 6 33.25 C5.28591666 35.23356483 4.61382258 37.23315437 4 39.25 C3.34 39.91 2.68 40.57 2 41.25 C-3.45454545 40.79545455 -3.45454545 40.79545455 -6 38.25 C-6.60311615 36.56238142 -7.13850237 34.84985524 -7.625 33.125 C-8.01558594 31.75988281 -8.01558594 31.75988281 -8.4140625 30.3671875 C-8.60742188 29.66851562 -8.80078125 28.96984375 -9 28.25 C-9.69867188 28.12882812 -10.39734375 28.00765625 -11.1171875 27.8828125 C-12.02726562 27.71523438 -12.93734375 27.54765625 -13.875 27.375 C-14.77992187 27.21257813 -15.68484375 27.05015625 -16.6171875 26.8828125 C-19 26.25 -19 26.25 -21 24.25 C-21.25 20.75 -21.25 20.75 -21 17.25 C-18.49755848 14.74755848 -17.0072137 14.83555558 -13.5625 14.25 C-10.56976069 13.61393669 -10.56976069 13.61393669 -8 12.25 C-6.54092942 9.6556171 -5.98386695 7.4484578 -5.46484375 4.52734375 C-4.72286734 0.89228284 -3.6423907 0.30353256 0 0 Z " fill="#191919" transform="translate(98,24.75)"/>
<path d="M0 0 C2.5 0.25 2.5 0.25 4.5 2.25 C4.83333333 7.58333333 4.83333333 7.58333333 3.5 10.25 C3.34274144 14.41735187 3.51682892 18.19441928 4.5 22.25 C7.47 22.25 10.44 22.25 13.5 22.25 C13.52694851 20.29174127 13.54637218 18.33337774 13.5625 16.375 C13.57990234 14.73917969 13.57990234 14.73917969 13.59765625 13.0703125 C13.69744303 10.29822454 13.69744303 10.29822454 12.5 8.25 C12.3125 5.25 12.3125 5.25 12.5 2.25 C14.5 0.25 14.5 0.25 16.875 -0.1875 C19.5 0.25 19.5 0.25 21.6875 2.4375 C25.47153971 8.30928575 26.35902905 13.31252488 25.5 20.25 C23.67556427 25.82163009 19.45486469 30.23881191 14.5 33.25 C10.26487352 34.7422985 7.18102059 34.43786775 2.875 33.25 C-2.81047361 29.88083045 -6.43527202 25.55731971 -8.5 19.25 C-9.13206209 14.20085281 -9.52087022 9.07452727 -6.625 4.6875 C-2.78089888 0.27808989 -2.78089888 0.27808989 0 0 Z " fill="#161616" transform="translate(92.5,107.75)"/>
<path d="M0 0 C0.95116196 -0.00953201 1.90232391 -0.01906403 2.88230896 -0.02888489 C4.42762047 -0.02751778 4.42762047 -0.02751778 6.00415039 -0.02612305 C7.05961563 -0.03040817 8.11508087 -0.0346933 9.20252991 -0.03910828 C11.43774701 -0.04485885 13.67298282 -0.04534651 15.90820312 -0.04101562 C19.3343897 -0.03785785 22.75971145 -0.06129885 26.18579102 -0.08666992 C28.35440971 -0.08894299 30.52303074 -0.08964638 32.69165039 -0.08862305 C33.71983383 -0.09783279 34.74801727 -0.10704254 35.80735779 -0.11653137 C37.23882896 -0.10718819 37.23882896 -0.10718819 38.69921875 -0.09765625 C39.53923935 -0.09828568 40.37925995 -0.0989151 41.24473572 -0.0995636 C43.91671452 0.3613168 44.79719451 1.13235446 46.41430664 3.2746582 C46.85180664 5.7746582 46.85180664 5.7746582 46.41430664 8.2746582 C44.6191366 10.34818045 43.10499142 11.17971151 40.38479614 11.5536499 C37.77666977 11.6730918 35.18530039 11.69021539 32.57446289 11.6730957 C31.13580116 11.67740097 31.13580116 11.67740097 29.66807556 11.68179321 C27.641504 11.6838329 25.61491271 11.67830973 23.58837891 11.66577148 C20.49149354 11.64973426 17.39591675 11.66561456 14.29907227 11.68481445 C12.32836627 11.68283166 10.35766108 11.67898724 8.38696289 11.6730957 C7.46287125 11.6791684 6.5387796 11.68524109 5.58668518 11.6914978 C0.79640974 11.63928726 -2.80458043 11.58404106 -6.58569336 8.2746582 C-7.02319336 5.2121582 -7.02319336 5.2121582 -6.58569336 2.2746582 C-4.11543746 -0.19559769 -3.40051451 0.01866901 0 0 Z " fill="#1F1F1F" transform="translate(20.585693359375,100.725341796875)"/>
<path d="M0 0 C1.03139603 0.02169754 2.06279205 0.04339508 3.1254425 0.06575012 C5.30003635 0.11493343 7.47446979 0.17171928 9.64868164 0.2355957 C12.9863241 0.33197473 16.32373447 0.40121332 19.66210938 0.46679688 C21.77477902 0.51792704 23.88741182 0.57060778 26 0.625 C27.00205978 0.64596237 28.00411957 0.66692474 29.0365448 0.68852234 C30.42357353 0.73285149 30.42357353 0.73285149 31.83862305 0.77807617 C32.65405075 0.80044846 33.46947845 0.82282074 34.30961609 0.84587097 C36.30078125 1.14453125 36.30078125 1.14453125 38.30078125 3.14453125 C37.8462358 8.5990767 37.8462358 8.5990767 35.30078125 11.14453125 C33.25819397 11.40522766 33.25819397 11.40522766 30.71508789 11.41918945 C29.28834496 11.43348747 29.28834496 11.43348747 27.83277893 11.44807434 C26.28746742 11.44670723 26.28746742 11.44670723 24.7109375 11.4453125 C23.65547226 11.44959763 22.60000702 11.45388275 21.51255798 11.45829773 C19.27734088 11.4640483 17.04210507 11.46453597 14.80688477 11.46020508 C11.3806982 11.4570473 7.95537645 11.48048831 4.52929688 11.50585938 C2.36067818 11.50813244 0.19205715 11.50883583 -1.9765625 11.5078125 C-3.51883766 11.52162712 -3.51883766 11.52162712 -5.0922699 11.53572083 C-6.04658401 11.52949203 -7.00089813 11.52326324 -7.98413086 11.5168457 C-8.82415146 11.51747513 -9.66417206 11.51810455 -10.52964783 11.51875305 C-13.20211414 11.05778856 -14.07882919 10.28439564 -15.69921875 8.14453125 C-16.19921875 5.64453125 -16.19921875 5.64453125 -15.69921875 3.14453125 C-11.07435856 -0.945642 -5.79883248 -0.1809744 0 0 Z " fill="#222222" transform="translate(150.69921875,99.85546875)"/>
<path d="M0 0 C1.00555183 0.0093734 1.00555183 0.0093734 2.03141785 0.01893616 C4.24044663 0.04235766 6.44891684 0.08075503 8.65771484 0.12011719 C10.19419537 0.14121943 11.73068458 0.16169811 13.2671814 0.18157959 C16.48343763 0.22555259 19.69946901 0.27691028 22.91552734 0.33349609 C27.04263543 0.40554037 31.16974553 0.45947315 35.29718971 0.50795364 C38.4679496 0.54713199 41.63851136 0.59571086 44.80909348 0.64717865 C46.33133137 0.67077577 47.85361727 0.69145858 49.3759346 0.70920563 C51.49960949 0.73540094 53.62268517 0.77418981 55.74609375 0.81640625 C56.9553653 0.83576233 58.16463684 0.85511841 59.41055298 0.87506104 C62.24365234 1.16699219 62.24365234 1.16699219 64.24365234 3.16699219 C64.49365234 6.16699219 64.49365234 6.16699219 64.24365234 9.16699219 C60.45436789 12.95627664 54.23296461 12.13988367 49.10614014 12.20974731 C45.59601433 12.1875297 42.088915 12.12385214 38.57958984 12.04589844 C37.30636871 12.02228745 36.03314758 11.99867645 34.72134399 11.97434998 C31.37091823 11.91116911 28.02067745 11.84291175 24.67041016 11.77209473 C21.23787622 11.70082186 17.8052147 11.6363604 14.37255859 11.57128906 C7.66278969 11.4427329 0.95318165 11.30747149 -5.75634766 11.16699219 C-5.30935155 13.074886 -4.85412982 14.98085374 -4.39550781 16.88598633 C-4.14290192 17.94757462 -3.89029602 19.0091629 -3.6300354 20.10292053 C-2.4151208 24.3636938 -0.4639273 27.86860253 1.86865234 31.60449219 C5.87573193 38.16671904 7.39209274 42.65891655 7.30615234 50.47949219 C7.29712891 51.548125 7.28810547 52.61675781 7.27880859 53.71777344 C7.26720703 54.52601562 7.25560547 55.33425781 7.24365234 56.16699219 C6.58365234 56.16699219 5.92365234 56.16699219 5.24365234 56.16699219 C5.14568359 55.10480469 5.04771484 54.04261719 4.94677734 52.94824219 C4.0674396 44.31214466 2.99790159 37.58979665 -2.02197266 30.33886719 C-6.27998935 24.02879425 -8.75634766 16.84797171 -8.75634766 9.16699219 C25.89365234 8.67199219 25.89365234 8.67199219 61.24365234 8.16699219 C61.57365234 6.51699219 61.90365234 4.86699219 62.24365234 3.16699219 C60.68529663 3.17484741 60.68529663 3.17484741 59.09545898 3.18286133 C35.7883294 3.2896842 12.53492249 3.05988754 -10.75634766 2.16699219 C-7.15079426 -0.0944379 -4.20043364 -0.05610593 0 0 Z " fill="#F0F0F0" transform="translate(123.75634765625,69.8330078125)"/>
<path d="M0 0 C2.5 0.25 2.5 0.25 4.5 2.25 C4.83333333 7.58333333 4.83333333 7.58333333 3.5 10.25 C3.34274144 14.41735187 3.51682892 18.19441928 4.5 22.25 C7.47 22.25 10.44 22.25 13.5 22.25 C13.52694851 20.29174127 13.54637218 18.33337774 13.5625 16.375 C13.57990234 14.73917969 13.57990234 14.73917969 13.59765625 13.0703125 C13.69744303 10.29822454 13.69744303 10.29822454 12.5 8.25 C12.3125 5.25 12.3125 5.25 12.5 2.25 C14.5 0.25 14.5 0.25 16.875 -0.1875 C19.5 0.25 19.5 0.25 21.6875 2.4375 C25.47153971 8.30928575 26.35902905 13.31252488 25.5 20.25 C23.67556427 25.82163009 19.45486469 30.23881191 14.5 33.25 C10.26487352 34.7422985 7.18102059 34.43786775 2.875 33.25 C-2.81047361 29.88083045 -6.43527202 25.55731971 -8.5 19.25 C-9.13206209 14.20085281 -9.52087022 9.07452727 -6.625 4.6875 C-2.78089888 0.27808989 -2.78089888 0.27808989 0 0 Z M-4.140625 3.8046875 C-6.0090552 7.16571423 -5.93367946 9.79682377 -5.9375 13.625 C-5.95683594 14.91148438 -5.97617188 16.19796875 -5.99609375 17.5234375 C-5.29380425 22.79890348 -2.84761089 25.74384665 0.625 29.625 C4.92347686 32.05457388 8.69206459 32.36456684 13.5 31.25 C17.18463998 28.93204838 20.53089228 26.18821544 22.5 22.25 C22.70353342 19.79306092 22.82340647 17.39757347 22.875 14.9375 C22.92398438 13.62136719 22.97296875 12.30523437 23.0234375 10.94921875 C22.38133906 6.41140363 21.10680274 4.98418917 17.5 2.25 C16.51 2.25 15.52 2.25 14.5 2.25 C14.45745644 4.24954746 14.45919217 6.25041636 14.5 8.25 C14.83 8.58 15.16 8.91 15.5 9.25 C15.59908783 11.03940972 15.62970379 12.83285508 15.625 14.625 C15.62886719 16.09066406 15.62886719 16.09066406 15.6328125 17.5859375 C15.5 20.25 15.5 20.25 14.5 23.25 C11.28548731 24.85725635 8.06387464 24.30748185 4.5 24.25 C0.11548362 17.12516089 1.15394029 10.15810078 2.5 2.25 C-1.18955131 1.81337035 -1.18955131 1.81337035 -4.140625 3.8046875 Z " fill="#F1F1F1" transform="translate(92.5,107.75)"/>
<path d="M0 0 C6.46153846 0.46153846 6.46153846 0.46153846 9 3 C9.45662449 4.46732383 9.86866654 5.94883283 10.25 7.4375 C11.37859195 10.99427463 11.65546985 11.76781664 14.875 13.9375 C15.90625 14.288125 16.9375 14.63875 18 15 C23 17 23 17 24 18 C23.875 21.375 23.875 21.375 23 25 C20.33818817 27.11379174 17.53369485 28.21270059 14.4375 29.625 C10.44994537 31.84030813 9.28852978 34.9248187 7.7265625 39.07421875 C7 41 7 41 6 42 C2.9295063 42.41493158 1.4673392 42.31614123 -1.125 40.5625 C-3.01839227 37.9748639 -3.40321073 36.54254226 -4.125 33.5 C-5.0360514 30.36536552 -5.49886962 29.30034358 -8.33984375 27.59765625 C-10.11264315 26.92363639 -11.90802776 26.30548936 -13.72265625 25.75390625 C-16 25 -16 25 -18 23 C-17.79084622 20.28100082 -17.44328227 18.55648974 -15.73046875 16.40625 C-13.65444857 14.71919071 -12.1057155 14.45430024 -9.5 13.9375 C-7.06554865 13.3146885 -7.06554865 13.3146885 -5 12 C-3.70223449 9.4301673 -3.09389952 7.09589314 -2.53515625 4.27734375 C-2 2 -2 2 0 0 Z M1 2 C0.52014033 3.27057182 0.0411407 4.54146848 -0.4375 5.8125 C-0.70433594 6.52019531 -0.97117188 7.22789063 -1.24609375 7.95703125 C-1.86225186 9.62672396 -2.43719235 11.31157704 -3 13 C-4.9609375 14.1328125 -4.9609375 14.1328125 -7.375 15.125 C-8.16648438 15.45757812 -8.95796875 15.79015625 -9.7734375 16.1328125 C-11.49732902 16.80422288 -13.24491183 17.41497061 -15 18 C-15.33 19.65 -15.66 21.3 -16 23 C-15.18015625 23.23332031 -14.3603125 23.46664063 -13.515625 23.70703125 C-4.72513891 26.682758 -4.72513891 26.682758 -2.48828125 30.74609375 C-1.5625 33.75 -1.5625 33.75 -0.94140625 36.671875 C-0.63074219 37.44015625 -0.32007813 38.2084375 0 39 C2.52685378 39.91762103 2.52685378 39.91762103 5 40 C5.17015625 39.40832031 5.3403125 38.81664062 5.515625 38.20703125 C8.26448215 29.24400234 8.26448215 29.24400234 12 26 C14.96409297 25.02564418 17.91471287 24.44169709 21 24 C21.33 22.35 21.66 20.7 22 19 C21.39671875 18.75765625 20.7934375 18.5153125 20.171875 18.265625 C11.67352185 14.70179949 11.67352185 14.70179949 9 11 C8.49762239 9.61235158 8.02017223 8.21552798 7.5625 6.8125 C6.92483934 4.73535753 6.92483934 4.73535753 6 3 C3.42919865 1.86559222 3.42919865 1.86559222 1 2 Z " fill="#F4F4F4" transform="translate(146,5)"/>
<path d="M0 0 C3 0.25 3 0.25 5 2.25 C5.50549721 3.71371993 5.95864599 5.19597299 6.375 6.6875 C7.27600394 9.48464657 7.78777567 11.02313951 9.8125 13.1875 C12.46786694 14.47724966 15.19593145 15.33562982 18 16.25 C20 18.25 20 18.25 20.3125 20.6875 C20 23.25 20 23.25 18.9375 24.875 C17 26.25 17 26.25 13.5625 27.6875 C10.05792592 29.22459389 8.31030909 30.25515489 6 33.25 C5.28591666 35.23356483 4.61382258 37.23315437 4 39.25 C3.34 39.91 2.68 40.57 2 41.25 C-3.45454545 40.79545455 -3.45454545 40.79545455 -6 38.25 C-6.60311615 36.56238142 -7.13850237 34.84985524 -7.625 33.125 C-8.01558594 31.75988281 -8.01558594 31.75988281 -8.4140625 30.3671875 C-8.60742188 29.66851562 -8.80078125 28.96984375 -9 28.25 C-9.69867188 28.12882812 -10.39734375 28.00765625 -11.1171875 27.8828125 C-12.02726562 27.71523438 -12.93734375 27.54765625 -13.875 27.375 C-14.77992187 27.21257813 -15.68484375 27.05015625 -16.6171875 26.8828125 C-19 26.25 -19 26.25 -21 24.25 C-21.25 20.75 -21.25 20.75 -21 17.25 C-18.49755848 14.74755848 -17.0072137 14.83555558 -13.5625 14.25 C-10.56976069 13.61393669 -10.56976069 13.61393669 -8 12.25 C-6.54092942 9.6556171 -5.98386695 7.4484578 -5.46484375 4.52734375 C-4.72286734 0.89228284 -3.6423907 0.30353256 0 0 Z M-2 2.25 C-2.67119549 3.7062545 -3.33681807 5.16507867 -4 6.625 C-4.37125 7.43710937 -4.7425 8.24921875 -5.125 9.0859375 C-6.12495013 11.16998433 -6.12495013 11.16998433 -6 13.25 C-10.3039919 14.99849671 -14.64750591 16.6270361 -19 18.25 C-19 19.9 -19 21.55 -19 23.25 C-18.32453125 23.46914063 -17.6490625 23.68828125 -16.953125 23.9140625 C-11.13847889 25.98111877 -7.83397204 27.46397375 -5 33.25 C-4.690625 34.178125 -4.38125 35.10625 -4.0625 36.0625 C-3.711875 36.784375 -3.36125 37.50625 -3 38.25 C-0.4714395 38.92040208 -0.4714395 38.92040208 2 39.25 C2.19335938 38.56292969 2.38671875 37.87585937 2.5859375 37.16796875 C2.84632812 36.26691406 3.10671875 35.36585937 3.375 34.4375 C3.63023438 33.54417969 3.88546875 32.65085937 4.1484375 31.73046875 C5 29.25 5 29.25 7 26.25 C9.6015625 25.30078125 9.6015625 25.30078125 12.625 24.5625 C13.62789062 24.31113281 14.63078125 24.05976562 15.6640625 23.80078125 C16.43492188 23.61902344 17.20578125 23.43726562 18 23.25 C18 21.6 18 19.95 18 18.25 C17.39671875 18.10304688 16.7934375 17.95609375 16.171875 17.8046875 C11.96528459 16.62412826 9.53984966 15.87508908 6.625 12.5 C4.93476646 9.11953292 3.40346948 5.7586737 2 2.25 C0.68 2.25 -0.64 2.25 -2 2.25 Z " fill="#F0F0F0" transform="translate(98,24.75)"/>
<path d="M0 0 C2.6875 0.3125 2.6875 0.3125 4.8125 1.75 C6.71720456 4.35309623 7.09359539 5.80967061 7.8125 8.875 C8.40762965 11.27904135 8.40762965 11.27904135 9.6875 13.3125 C12.25644293 14.60769326 14.59337599 15.21895119 17.41015625 15.77734375 C19.6875 16.3125 19.6875 16.3125 21.6875 18.3125 C22.125 20.6875 22.125 20.6875 21.6875 23.3125 C18.94888427 26.13669747 16.12015031 27.55935993 12.5625 29.0625 C10.10755832 30.21857948 8.94612977 30.84884737 7.61328125 33.23828125 C6.85386991 35.34080562 6.85386991 35.34080562 6.35546875 37.41015625 C5.54878841 39.70754413 4.56712721 40.78559296 2.6875 42.3125 C0.1875 42.8125 0.1875 42.8125 -2.3125 42.3125 C-4.4112557 39.64869469 -5.57113567 36.72573209 -6.875 33.625 C-8.07460668 30.30561563 -8.07460668 30.30561563 -10.3125 28.3125 C-12.21428785 27.71188767 -12.21428785 27.71188767 -14.3125 27.3125 C-17.26108104 26.7054392 -18.11197406 26.51302594 -20.3125 24.3125 C-20.6875 21.375 -20.6875 21.375 -20.3125 18.3125 C-18.02077517 15.73430957 -15.44009496 15.02224037 -12.25 14 C-8.97749036 12.84035373 -8.44093918 12.50944007 -6.4375 9.4375 C-6.06625 8.40625 -5.695 7.375 -5.3125 6.3125 C-2.94678571 0.39821429 -2.94678571 0.39821429 0 0 Z M-1.3125 2.3125 C-1.580625 3.06015625 -1.84875 3.8078125 -2.125 4.578125 C-5.7242041 13.6234932 -5.7242041 13.6234932 -10.375 15.875 C-11.68016306 16.37380489 -12.99285436 16.85337875 -14.3125 17.3125 C-15.65366939 17.96325871 -16.98933676 18.62586963 -18.3125 19.3125 C-18.44690778 21.74169865 -18.44690778 21.74169865 -17.3125 24.3125 C-15.38382498 25.26331876 -13.42363137 25.85746462 -11.37890625 26.51953125 C-7.43936418 28.03130259 -5.09209848 30.62127427 -3.34375 34.4140625 C-2.60232869 36.35686093 -1.949921 38.33314007 -1.3125 40.3125 C1.1625 39.8175 1.1625 39.8175 3.6875 39.3125 C3.81125 38.72082031 3.935 38.12914062 4.0625 37.51953125 C5.28375998 32.84057894 6.34323473 30.02478531 10.5625 27.4375 C11.92732788 26.70975968 13.30191644 25.9999004 14.6875 25.3125 C15.6775 24.714375 16.6675 24.11625 17.6875 23.5 C18.3475 23.108125 19.0075 22.71625 19.6875 22.3125 C19.56636362 20.31913664 19.56636362 20.31913664 18.6875 18.3125 C16.48809001 17.5003247 16.48809001 17.5003247 13.875 17.125 C9.12219 15.90963859 9.12219 15.90963859 7.171875 13.23046875 C6.18174789 10.94357069 5.37688847 8.70584864 4.6875 6.3125 C4.3575 5.3225 4.0275 4.3325 3.6875 3.3125 C2.0375 2.9825 0.3875 2.6525 -1.3125 2.3125 Z " fill="#E8E8E8" transform="translate(45.3125,12.6875)"/>
<path d="M0 0 C0.95116196 -0.00953201 1.90232391 -0.01906403 2.88230896 -0.02888489 C4.42762047 -0.02751778 4.42762047 -0.02751778 6.00415039 -0.02612305 C7.05961563 -0.03040817 8.11508087 -0.0346933 9.20252991 -0.03910828 C11.43774701 -0.04485885 13.67298282 -0.04534651 15.90820312 -0.04101562 C19.3343897 -0.03785785 22.75971145 -0.06129885 26.18579102 -0.08666992 C28.35440971 -0.08894299 30.52303074 -0.08964638 32.69165039 -0.08862305 C33.71983383 -0.09783279 34.74801727 -0.10704254 35.80735779 -0.11653137 C37.23882896 -0.10718819 37.23882896 -0.10718819 38.69921875 -0.09765625 C39.53923935 -0.09828568 40.37925995 -0.0989151 41.24473572 -0.0995636 C43.91671452 0.3613168 44.79719451 1.13235446 46.41430664 3.2746582 C46.85180664 5.7746582 46.85180664 5.7746582 46.41430664 8.2746582 C44.6191366 10.34818045 43.10499142 11.17971151 40.38479614 11.5536499 C37.77666977 11.6730918 35.18530039 11.69021539 32.57446289 11.6730957 C31.13580116 11.67740097 31.13580116 11.67740097 29.66807556 11.68179321 C27.641504 11.6838329 25.61491271 11.67830973 23.58837891 11.66577148 C20.49149354 11.64973426 17.39591675 11.66561456 14.29907227 11.68481445 C12.32836627 11.68283166 10.35766108 11.67898724 8.38696289 11.6730957 C7.46287125 11.6791684 6.5387796 11.68524109 5.58668518 11.6914978 C0.79640974 11.63928726 -2.80458043 11.58404106 -6.58569336 8.2746582 C-7.02319336 5.2121582 -7.02319336 5.2121582 -6.58569336 2.2746582 C-4.11543746 -0.19559769 -3.40051451 0.01866901 0 0 Z M-4.58569336 2.2746582 C-4.58569336 3.9246582 -4.58569336 5.5746582 -4.58569336 7.2746582 C-3.5960261 8.48470652 -3.5960261 8.48470652 -1.68113708 8.39491272 C-0.84840775 8.39269211 -0.01567841 8.3904715 0.84228516 8.38818359 C1.78318497 8.38810806 2.72408478 8.38803253 3.6934967 8.38795471 C4.71640305 8.38279343 5.73930939 8.37763214 6.79321289 8.37231445 C8.35591164 8.37019203 8.35591164 8.37019203 9.95018005 8.36802673 C13.29241758 8.362409 16.63458921 8.3498535 19.97680664 8.3371582 C22.2365713 8.33214549 24.49633701 8.32758219 26.75610352 8.32348633 C32.30886055 8.31243381 37.86157889 8.29567844 43.41430664 8.2746582 C44.74763997 5.2746582 44.74763997 5.2746582 43.41430664 2.2746582 C27.57430664 2.2746582 11.73430664 2.2746582 -4.58569336 2.2746582 Z " fill="#F5F5F5" transform="translate(20.585693359375,100.725341796875)"/>
<path d="M0 0 C0.33 0 0.66 0 1 0 C1.02578125 1.25554687 1.0515625 2.51109375 1.078125 3.8046875 C1.49467761 17.75153757 3.29880753 28.46494009 13.63671875 38.60546875 C19.91390402 43.46654281 27.44067228 42.75170968 35 42 C41.00832328 40.83543648 45.41557855 36.7792286 49 32 C54.29448078 23.04850671 54.85874986 14.11864618 55 4 C55.33 4 55.66 4 56 4 C57.39542548 15.41711753 58.10809187 24.22061659 51 34 C46.32762901 39.84312454 40.48815753 44.51636505 33 46 C24.68142223 46.73565654 18.00964784 45.60141843 11.375 40.375 C3.47029866 33.10195287 -1.57150071 23.30217371 -2.125 12.578125 C-2.23462785 7.94634826 -2.23601296 4.19252429 0 0 Z " fill="#EBEBEB" transform="translate(73,110)"/>
<path d="M0 0 C1.03139603 0.02169754 2.06279205 0.04339508 3.1254425 0.06575012 C5.30003635 0.11493343 7.47446979 0.17171928 9.64868164 0.2355957 C12.9863241 0.33197473 16.32373447 0.40121332 19.66210938 0.46679688 C21.77477902 0.51792704 23.88741182 0.57060778 26 0.625 C27.00205978 0.64596237 28.00411957 0.66692474 29.0365448 0.68852234 C30.42357353 0.73285149 30.42357353 0.73285149 31.83862305 0.77807617 C32.65405075 0.80044846 33.46947845 0.82282074 34.30961609 0.84587097 C36.30078125 1.14453125 36.30078125 1.14453125 38.30078125 3.14453125 C37.8462358 8.5990767 37.8462358 8.5990767 35.30078125 11.14453125 C33.25819397 11.40522766 33.25819397 11.40522766 30.71508789 11.41918945 C29.28834496 11.43348747 29.28834496 11.43348747 27.83277893 11.44807434 C26.28746742 11.44670723 26.28746742 11.44670723 24.7109375 11.4453125 C23.65547226 11.44959763 22.60000702 11.45388275 21.51255798 11.45829773 C19.27734088 11.4640483 17.04210507 11.46453597 14.80688477 11.46020508 C11.3806982 11.4570473 7.95537645 11.48048831 4.52929688 11.50585938 C2.36067818 11.50813244 0.19205715 11.50883583 -1.9765625 11.5078125 C-3.51883766 11.52162712 -3.51883766 11.52162712 -5.0922699 11.53572083 C-6.04658401 11.52949203 -7.00089813 11.52326324 -7.98413086 11.5168457 C-8.82415146 11.51747513 -9.66417206 11.51810455 -10.52964783 11.51875305 C-13.20211414 11.05778856 -14.07882919 10.28439564 -15.69921875 8.14453125 C-16.19921875 5.64453125 -16.19921875 5.64453125 -15.69921875 3.14453125 C-11.07435856 -0.945642 -5.79883248 -0.1809744 0 0 Z M-12.69921875 3.14453125 C-14.09692459 6.89144572 -14.09692459 6.89144572 -12.69921875 9.14453125 C-6.04239175 9.22041818 0.61432428 9.27306186 7.27148438 9.30932617 C9.5374773 9.32443929 11.80344085 9.34493038 14.06933594 9.37084961 C17.32103714 9.40712187 20.57235261 9.42423215 23.82421875 9.4375 C24.84196381 9.45298386 25.85970886 9.46846771 26.90829468 9.48442078 C28.3195311 9.48476067 28.3195311 9.48476067 29.75927734 9.48510742 C30.58978607 9.49176926 31.4202948 9.49843109 32.27597046 9.5052948 C32.94415802 9.38624283 33.61234558 9.26719086 34.30078125 9.14453125 C36.57813135 6.32943132 36.57813135 6.32943132 36.30078125 3.14453125 C20.13078125 3.14453125 3.96078125 3.14453125 -12.69921875 3.14453125 Z " fill="#F4F4F4" transform="translate(150.69921875,99.85546875)"/>
<path d="M0 0 C1.00555183 0.0093734 1.00555183 0.0093734 2.03141785 0.01893616 C4.24044663 0.04235766 6.44891684 0.08075503 8.65771484 0.12011719 C10.19419537 0.14121943 11.73068458 0.16169811 13.2671814 0.18157959 C16.48343763 0.22555259 19.69946901 0.27691028 22.91552734 0.33349609 C27.04263543 0.40554037 31.16974553 0.45947315 35.29718971 0.50795364 C38.4679496 0.54713199 41.63851136 0.59571086 44.80909348 0.64717865 C46.33133137 0.67077577 47.85361727 0.69145858 49.3759346 0.70920563 C51.49960949 0.73540094 53.62268517 0.77418981 55.74609375 0.81640625 C56.9553653 0.83576233 58.16463684 0.85511841 59.41055298 0.87506104 C62.24365234 1.16699219 62.24365234 1.16699219 64.24365234 3.16699219 C64.49365234 6.16699219 64.49365234 6.16699219 64.24365234 9.16699219 C60.64449344 12.76615109 55.02582577 12.1607505 50.14880371 12.17169189 C44.30304828 12.1109515 38.4613528 11.9194855 32.61865234 11.72949219 C30.83351361 11.67616818 29.04835731 11.62342882 27.26318359 11.57128906 C22.92310785 11.44326755 18.58334687 11.30732107 14.24365234 11.16699219 C14.24365234 10.83699219 14.24365234 10.50699219 14.24365234 10.16699219 C37.01365234 9.67199219 37.01365234 9.67199219 60.24365234 9.16699219 C60.90365234 7.18699219 61.56365234 5.20699219 62.24365234 3.16699219 C60.68529663 3.17484741 60.68529663 3.17484741 59.09545898 3.18286133 C35.7883294 3.2896842 12.53492249 3.05988754 -10.75634766 2.16699219 C-7.15079426 -0.0944379 -4.20043364 -0.05610593 0 0 Z " fill="#F9F9F9" transform="translate(123.75634765625,69.8330078125)"/>
<path d="M0 0 C22.44 0 44.88 0 68 0 C65.75912409 14.56569343 65.75912409 14.56569343 63 19 C62.51917969 19.8146875 62.03835937 20.629375 61.54296875 21.46875 C59.43687556 25.03527278 57.29777702 28.55333447 55 32 C54.265625 30.37109375 54.265625 30.37109375 54 28 C55.546875 25.22265625 55.546875 25.22265625 57.75 22.0625 C62.00148917 15.68250793 63.70126015 9.56001818 65 2 C63.24768066 2.00870117 63.24768066 2.00870117 61.45996094 2.01757812 C48.04985504 2.06260754 34.65569846 1.82347353 21.25 1.5 C19.173182 1.45161128 17.09635909 1.40343319 15.01953125 1.35546875 C10.01296109 1.23939506 5.00646516 1.12051414 0 1 C0 0.67 0 0.34 0 0 Z " fill="#F0F0F0" transform="translate(19,79)"/>
<path d="M0 0 C6.46153846 0.46153846 6.46153846 0.46153846 9 3 C9.45662449 4.46732383 9.86866654 5.94883283 10.25 7.4375 C11.37859195 10.99427463 11.65546985 11.76781664 14.875 13.9375 C15.90625 14.288125 16.9375 14.63875 18 15 C23 17 23 17 24 18 C24.04063832 19.66617115 24.042721 21.33388095 24 23 C23.01 23.33 22.02 23.66 21 24 C21.33 22.35 21.66 20.7 22 19 C21.40832031 18.84144531 20.81664062 18.68289062 20.20703125 18.51953125 C14.94714929 16.96645028 11.40082342 15.53443122 8 11 C7.07490087 8.65803851 6.53428206 6.47712592 6 4 C3.525 3.505 3.525 3.505 1 3 C0.79697266 4.01320313 0.79697266 4.01320313 0.58984375 5.046875 C-1.11476831 12.11029745 -1.11476831 12.11029745 -3.546875 14.5546875 C-7.3392769 16.85362139 -10.64124503 17.42524439 -15 17 C-14.67 16.34 -14.34 15.68 -14 15 C-12.55043603 14.63039006 -11.08985345 14.30340007 -9.625 14 C-7.13293254 13.34877858 -7.13293254 13.34877858 -5 12 C-3.69525666 9.42901394 -3.09463821 7.09961943 -2.53515625 4.27734375 C-2 2 -2 2 0 0 Z " fill="#F1F1F1" transform="translate(146,5)"/>
<path d="M0 0 C0.66 0 1.32 0 2 0 C2.62078 8.80128089 2.34351304 15.71802877 -3 23 C-10.56147449 30.90846376 -10.56147449 30.90846376 -15.6015625 31.09765625 C-17.09816406 31.08025391 -17.09816406 31.08025391 -18.625 31.0625 C-19.62789063 31.05347656 -20.63078125 31.04445312 -21.6640625 31.03515625 C-22.43492188 31.02355469 -23.20578125 31.01195312 -24 31 C-24 30.34 -24 29.68 -24 29 C-23.35933594 28.97421875 -22.71867187 28.9484375 -22.05859375 28.921875 C-16.3756008 28.54921972 -11.21646935 28.14136685 -7 24 C-3.26543052 18.08288992 -1.01141384 12.28145381 -0.4375 5.3125 C-0.35371094 4.31863281 -0.26992187 3.32476562 -0.18359375 2.30078125 C-0.09271484 1.16189453 -0.09271484 1.16189453 0 0 Z " fill="#F4F4F4" transform="translate(120,116)"/>
<path d="M0 0 C0.495 0.268125 0.99 0.53625 1.5 0.8125 C4.33756921 2.16034538 7.22973569 3.18919126 10.1953125 4.21875 C12 5 12 5 14 7 C14.34595842 9.69847564 14.44808556 11.31469267 12.9375 13.625 C10.71266792 15.20391309 8.37577981 16.1011525 5.8515625 17.10546875 C2.79122642 18.58398555 0.51385738 20.731397 -2 23 C-3 20 -3 20 -1.75 16.9375 C-0.09846294 14.56046631 0.90271198 14.02977349 3.71875 13.16796875 C6.47765138 12.6737841 9.21158935 12.27884107 12 12 C12 10.35 12 8.7 12 7 C11.38511719 6.89042969 10.77023438 6.78085937 10.13671875 6.66796875 C9.32847656 6.50941406 8.52023438 6.35085937 7.6875 6.1875 C6.88699219 6.03667969 6.08648437 5.88585938 5.26171875 5.73046875 C2.73679476 4.91499244 1.61930266 4.08046329 0 2 C0 1.34 0 0.68 0 0 Z " fill="#F2F2F2" transform="translate(104,36)"/>
<path d="M0 0 C1.2065625 0.0309375 1.2065625 0.0309375 2.4375 0.0625 C2.7675 0.7225 3.0975 1.3825 3.4375 2.0625 C2.65246094 2.12824219 1.86742188 2.19398437 1.05859375 2.26171875 C-1.73433768 2.77868297 -1.73433768 2.77868297 -2.71484375 5.20703125 C-2.97394531 6.08746094 -3.23304687 6.96789062 -3.5 7.875 C-5.2250635 12.73150407 -6.77892058 14.76638188 -11.5625 17.0625 C-14.9375 18.3125 -14.9375 18.3125 -17.5625 19.0625 C-17.2325 21.3725 -16.9025 23.6825 -16.5625 26.0625 C-17.8825 25.4025 -19.2025 24.7425 -20.5625 24.0625 C-20.8125 21.25 -20.8125 21.25 -20.5625 18.0625 C-18.27077517 15.48430957 -15.69009496 14.77224037 -12.5 13.75 C-9.22749036 12.59035373 -8.69093918 12.25944007 -6.6875 9.1875 C-6.31625 8.15625 -5.945 7.125 -5.5625 6.0625 C-3.16841133 0.07727833 -3.16841133 0.07727833 0 0 Z " fill="#EBEBEB" transform="translate(45.5625,12.9375)"/>
<path d="M0 0 C5.61262136 2.38834951 5.61262136 2.38834951 7.1875 4.875 C6.88191993 8.33824079 4.50635321 9.79929962 2 12 C-0.62187494 10.95125002 -1.79371361 10.35068687 -3.25 7.875 C-3.4975 7.25625 -3.745 6.6375 -4 6 C-2.68 4.02 -1.36 2.04 0 0 Z " fill="#D8D8D8" transform="translate(148,20)"/>
<path d="M0 0 C1.875 0.875 1.875 0.875 3.875 2.875 C3.52200993 6.31665321 2.82918308 7.94372538 0.875 10.875 C-1.5 10.1875 -1.5 10.1875 -4.125 8.875 C-5.4375 6.25 -5.4375 6.25 -6.125 3.875 C-2.70224958 -0.15895586 -2.70224958 -0.15895586 0 0 Z " fill="#E1E1E1" transform="translate(46.125,29.125)"/>
<path d="M0 0 C2.88437779 1.29299694 4.87219421 2.65941363 7 5 C5.9024777 7.99324263 5.32317108 8.84610901 2.375 10.25 C1.59125 10.4975 0.8075 10.745 0 11 C-4 6.25 -4 6.25 -4 4 C-2.70766393 2.62689293 -1.37562854 1.28965176 0 0 Z " fill="#E1E1E1" transform="translate(96,40)"/>
<path d="M0 0 C2.5 0.25 2.5 0.25 4.5 2.25 C4.625 5.375 4.625 5.375 4.5 8.25 C3.84 8.25 3.18 8.25 2.5 8.25 C2.5 6.27 2.5 4.29 2.5 2.25 C0.09122743 2.36341534 0.09122743 2.36341534 -2.5 3.25 C-5.3029941 6.96935755 -5.93478813 9.96314404 -6.1875 14.5625 C-6.28611328 16.16544922 -6.28611328 16.16544922 -6.38671875 17.80078125 C-6.42410156 18.60902344 -6.46148437 19.41726562 -6.5 20.25 C-7.16 19.92 -7.82 19.59 -8.5 19.25 C-8.94616681 12.28484039 -9.19925348 7.64032017 -4.5 2.25 C-2.5 0.25 -2.5 0.25 0 0 Z " fill="#F8F8F8" transform="translate(92.5,107.75)"/>
<path d="M0 0 C0.33 0 0.66 0 1 0 C1.02578125 0.86882812 1.0515625 1.73765625 1.078125 2.6328125 C1.47903613 10.77859772 2.01873112 15.01873112 7.8125 20.8125 C10.80024843 22.43442058 13.64529501 22.67743221 17 23 C14.61842094 24.55718631 13.05129937 24.99772003 10.1875 25.125 C5.46310206 23.45756543 2.76509189 20.10574251 0 16 C-1.34208476 12.54377098 -0.91916991 9.39595906 -0.5625 5.75 C-0.46066406 4.67234375 -0.35882813 3.5946875 -0.25390625 2.484375 C-0.17011719 1.66453125 -0.08632812 0.8446875 0 0 Z " fill="#E4E4E4" transform="translate(86,116)"/>
<path d="M0 0 C3 0.25 3 0.25 5 2.25 C5.6328125 4.4140625 5.6328125 4.4140625 6.125 6.875 C6.29257813 7.69226562 6.46015625 8.50953125 6.6328125 9.3515625 C6.81457031 10.29128906 6.81457031 10.29128906 7 11.25 C6.34 11.25 5.68 11.25 5 11.25 C4.01 8.61 3.02 5.97 2 3.25 C0.68 3.25 -0.64 3.25 -2 3.25 C-2.66 4.9 -3.32 6.55 -4 8.25 C-4.66 8.25 -5.32 8.25 -6 8.25 C-4.97802198 0.41483516 -4.97802198 0.41483516 0 0 Z " fill="#F7F7F7" transform="translate(98,24.75)"/>
<path d="M0 0 C-0.33 3.3 -0.66 6.6 -1 10 C-1.33 10 -1.66 10 -2 10 C-2.33 7.03 -2.66 4.06 -3 1 C-16.86 0.505 -16.86 0.505 -31 0 C-31 -0.33 -31 -0.66 -31 -1 C-26.58404696 -1.2258868 -22.16731435 -1.42767834 -17.75 -1.625 C-16.49574219 -1.68945312 -15.24148437 -1.75390625 -13.94921875 -1.8203125 C-12.74394531 -1.871875 -11.53867188 -1.9234375 -10.296875 -1.9765625 C-8.63156738 -2.05511475 -8.63156738 -2.05511475 -6.93261719 -2.13525391 C-4 -2 -4 -2 0 0 Z " fill="#E2E2E2" transform="translate(95,73)"/>
<path d="M0 0 C0.66 0 1.32 0 2 0 C4.46479466 4.62149 4.84379768 9.87370229 4 15 C3.01 15.66 2.02 16.32 1 17 C0.67 11.39 0.34 5.78 0 0 Z " fill="#E7E7E7" transform="translate(114,113)"/>
<path d="M0 0 C0.66 0 1.32 0 2 0 C5.0017506 7.07555499 5.34855655 13.37048445 5 21 C4.34 21 3.68 21 3 21 C2.86722656 19.90300781 2.73445312 18.80601563 2.59765625 17.67578125 C2.41937015 16.22134199 2.2409792 14.76691558 2.0625 13.3125 C1.97548828 12.59126953 1.88847656 11.87003906 1.79882812 11.12695312 C1.33686195 7.37989416 0.80832321 3.69207089 0 0 Z " fill="#F9F9F9" transform="translate(126,105)"/>
<path d="M0 0 C2.11464837 0.45313894 3.84029857 0.90708281 5.71875 2 C8.744969 3.32656175 11.46065322 3.42763919 14.75 3.625 C16.50570312 3.73714844 16.50570312 3.73714844 18.296875 3.8515625 C19.63492188 3.92503906 19.63492188 3.92503906 21 4 C21 4.33 21 4.66 21 5 C7.03245034 6.76029393 7.03245034 6.76029393 3.1875 4.1875 C1 2 1 2 0 0 Z " fill="#D7D7D7" transform="translate(85,149)"/>
<path d="M0 0 C-2.98524946 1.9901663 -6.0153093 3.8882982 -9.0625 5.78125 C-10.72551375 6.82733929 -12.36529801 7.91019867 -14 9 C-11.71647031 1.5266301 -7.6121741 -0.59703326 0 0 Z " fill="#C7C7C7" transform="translate(167,29)"/>
<path d="M0 0 C2.0625 0.4375 2.0625 0.4375 4 1 C3.01 1 2.02 1 1 1 C0.67 2.65 0.34 4.3 0 6 C2.97 6.495 2.97 6.495 6 7 C5.67 7.66 5.34 8.32 5 9 C0.25 8.25 0.25 8.25 -2 6 C-1.44444444 1.44444444 -1.44444444 1.44444444 0 0 Z " fill="#E3E3E3" transform="translate(130,22)"/>
<path d="M0 0 C0.66 0 1.32 0 2 0 C2.08333357 4.8333472 1.95261487 9.23692563 1 14 C0.34 14 -0.32 14 -1 14 C-0.67 9.38 -0.34 4.76 0 0 Z " fill="#F9F9F9" transform="translate(94,76)"/>
<path d="M0 0 C0.33 0.99 0.66 1.98 1 3 C-3.61012242 5.95047835 -6.36529617 7.5497272 -12 7 C-11 5 -11 5 -9.00390625 4.21875 C-8.19824219 3.9815625 -7.39257812 3.744375 -6.5625 3.5 C-2.90617965 2.42683488 -2.90617965 2.42683488 0 0 Z " fill="#EEEEEE" transform="translate(143,15)"/>
<path d="M0 0 C0.78375 0.04125 1.5675 0.0825 2.375 0.125 C2.705 0.785 3.035 1.445 3.375 2.125 C1.725 2.455 0.075 2.785 -1.625 3.125 C-2.285 5.105 -2.945 7.085 -3.625 9.125 C-4.285 9.125 -4.945 9.125 -5.625 9.125 C-4.6356383 0.22074468 -4.6356383 0.22074468 0 0 Z " fill="#F6F6F6" transform="translate(45.625,12.875)"/>
<path d="M0 0 C0.33 0 0.66 0 1 0 C1.33 5.94 1.66 11.88 2 18 C1.01 18.33 0.02 18.66 -1 19 C-0.67 12.73 -0.34 6.46 0 0 Z " fill="#DEDEDE" transform="translate(128,114)"/>
<path d="M0 0 C0.763125 0.0825 1.52625 0.165 2.3125 0.25 C2.3125 1.9 2.3125 3.55 2.3125 5.25 C1.6525 4.59 0.9925 3.93 0.3125 3.25 C-0.6775 3.91 -1.6675 4.57 -2.6875 5.25 C-3.6775 4.92 -4.6675 4.59 -5.6875 4.25 C-3.34903846 0.31153846 -3.34903846 0.31153846 0 0 Z " fill="#383838" transform="translate(92.6875,109.75)"/>
<path d="M0 0 C3.125 0.375 3.125 0.375 6 1 C6 1.33 6 1.66 6 2 C4.35 2.33 2.7 2.66 1 3 C0.67 5.64 0.34 8.28 0 11 C-0.33 11 -0.66 11 -1 11 C-1.22174933 9.54364629 -1.42698698 8.08477044 -1.625 6.625 C-1.74101563 5.81289062 -1.85703125 5.00078125 -1.9765625 4.1640625 C-1.98429687 3.44992188 -1.99203125 2.73578125 -2 2 C-1.34 1.34 -0.68 0.68 0 0 Z " fill="#EEEEEE" transform="translate(109,71)"/>
<path d="M0 0 C0.33 0 0.66 0 1 0 C1.33 5.61 1.66 11.22 2 17 C-1 14 -1 14 -1.07421875 10.64453125 C-0.94660156 9.37996094 -0.81898437 8.11539063 -0.6875 6.8125 C-0.56761719 5.54019531 -0.44773437 4.26789063 -0.32421875 2.95703125 C-0.21722656 1.98121094 -0.11023438 1.00539063 0 0 Z " fill="#C4C4C4" transform="translate(86,116)"/>
<path d="M0 0 C0.99 0.33 1.98 0.66 3 1 C1.02 3.31 -0.96 5.62 -3 8 C-3.33 7.34 -3.66 6.68 -4 6 C-2.68 4.02 -1.36 2.04 0 0 Z " fill="#CBCBCB" transform="translate(105,50)"/>
<path d="M0 0 C0.66 0.33 1.32 0.66 2 1 C1.25 5.75 1.25 5.75 -1 8 C-1.99 7.67 -2.98 7.34 -4 7 C-2.68 4.69 -1.36 2.38 0 0 Z " fill="#393939" transform="translate(50,33)"/>
<path d="M0 0 C0.66 0 1.32 0 2 0 C3.33333333 1.33333333 4.66666667 2.66666667 6 4 C8.13309192 5.23512079 8.13309192 5.23512079 10 6 C10 6.33 10 6.66 10 7 C7.8125 7.3125 7.8125 7.3125 5 7 C2.1875 4.625 2.1875 4.625 0 2 C0 1.34 0 0.68 0 0 Z " fill="#F4F4F4" transform="translate(155,15)"/>
<path d="M0 0 C0.99 0 1.98 0 3 0 C3 1.65 3 3.3 3 5 C1.02 5.99 1.02 5.99 -1 7 C-0.67 4.69 -0.34 2.38 0 0 Z " fill="#EBEBEB" transform="translate(64,104)"/>
<path d="M0 0 C2 3 2 3 2 6 C2.99 6.33 3.98 6.66 5 7 C3.35 6.67 1.7 6.34 0 6 C-0.38218767 4.34385343 -0.71395102 2.67542976 -1 1 C-0.67 0.67 -0.34 0.34 0 0 Z " fill="#E6E6E6" transform="translate(144,38)"/>
<path d="M0 0 C0.33 0 0.66 0 1 0 C1.66 2.64 2.32 5.28 3 8 C1.68 7.34 0.36 6.68 -1 6 C-1.042721 4.33388095 -1.04063832 2.66617115 -1 1 C-0.67 0.67 -0.34 0.34 0 0 Z " fill="#F8F8F8" transform="translate(26,31)"/>
</svg>
