<svg xmlns="http://www.w3.org/2000/svg" width="80" height="80" viewBox="0 0 80 80" id="digital-password">
  <path id="Password" d="M387 463.875a1.967 1.967 0 0 1-1.74 1.021 2.211 2.211 0 0 1-.98-.24l-6.02-3.342V468a2 2 0 1 1-4 0v-6.684l-6.02 3.342a2.148 2.148 0 0 1-.98.24 1.967 1.967 0 0 1-1.74-1.021 2 2 0 0 1 .76-2.721l5.86-3.242-5.86-3.262a2.007 2.007 0 0 1 1.96-3.5l6.02 3.342v-6.684a2 2 0 1 1 4 0v6.684l6.02-3.342a2.007 2.007 0 0 1 1.96 3.5l-5.84 3.262 5.84 3.242a2 2 0 0 1 .76 2.719zm27.84 0a1.967 1.967 0 0 1-1.74 1.021 2.088 2.088 0 0 1-.98-.24l-6.02-3.342V468a2 2 0 1 1-4 0v-6.7l-6.04 3.362a2.069 2.069 0 0 1-.96.24 1.994 1.994 0 0 1-.98-3.742l5.86-3.242-5.86-3.262a2 2 0 0 1 1.94-3.5l6.04 3.362v-6.7a2 2 0 1 1 4 0v6.684l6.02-3.342a2 2 0 0 1 1.94 3.5l-5.84 3.262 5.84 3.242a1.989 1.989 0 0 1 .778 2.711zM429.926 470a2 2 0 0 1-2-2v-20.2a2 2 0 1 1 4 0v20.191a2 2 0 0 1-2 2.009zm-17.808-58.6v-9.365a12.02 12.02 0 1 0-24.04 0v9.345a15.136 15.136 0 0 0-3.24 9.386 2 2 0 1 0 4 0 11.211 11.211 0 0 1 2.66-7.264.534.534 0 0 1 .1-.121 11.25 11.25 0 0 1 17.02.02c.02.041.06.061.08.1a11.133 11.133 0 0 1 2.66 7.264 11.27 11.27 0 0 1-19.78 7.385 1.992 1.992 0 1 0-3 2.621 15.26 15.26 0 0 0 26.78-10.006 15.038 15.038 0 0 0-3.24-9.372zm-4-3.582a14.871 14.871 0 0 0-8.02-2.321 15.135 15.135 0 0 0-8.02 2.281v-5.743a8.02 8.02 0 1 1 16.04 0v5.783zm-8.026 17.241a2 2 0 0 1-2-2v-7.192a2 2 0 1 1 4 0v7.192a2 2 0 0 1-2 1.993zM438 443.364h-76a2 2 0 0 1 0-4h76a2 2 0 0 1 0 4z" style="fill:#3f4662;fill-rule:evenodd" transform="translate(-360 -390)"></path>
</svg>
